<svg width="18" height="18" viewBox="0 0 18 18" fill="none" xmlns="http://www.w3.org/2000/svg">
<path d="M0.00988108 3.95574C0.0249135 1.76101 1.79874 -0.00529504 4.00098 0.00222116C6.20323 0.0172536 7.96202 1.79859 7.94699 3.99332C7.93196 6.18805 6.16565 7.94684 3.97092 7.93933C1.76867 7.93181 0.00236488 6.15799 0.00988108 3.95574ZM6.69178 3.97829C6.69178 2.47505 5.48919 1.26494 3.98595 1.25743C2.48271 1.25743 1.2726 2.46002 1.26509 3.96326C1.26509 5.4665 2.46768 6.67661 3.97092 6.68412C5.48168 6.69164 6.69178 5.48153 6.69178 3.97829Z" fill="white"/>
<ellipse cx="3.92307" cy="3.9231" rx="3.05128" ry="3.05128" fill="white"/>
<circle cx="13.9487" cy="13.9486" r="3.48717" fill="white"/>
<path d="M10.044 14.0049C10.044 11.8027 11.8178 10.0364 14.0126 10.0364C16.2148 10.0364 17.9811 11.8102 17.9736 14.0124C17.9661 16.2072 16.2073 17.966 14.0126 17.9735C11.8178 17.9735 10.044 16.1997 10.044 14.0049ZM11.2992 14.0049C11.2992 15.5082 12.5093 16.7183 14.0126 16.7183C15.5158 16.7183 16.7259 15.5082 16.7259 14.0049C16.7259 12.5017 15.5158 11.2916 14.0126 11.2916C12.5093 11.2916 11.2992 12.4942 11.2992 14.0049Z" fill="white"/>
<path d="M7.94699 14.0049C7.93195 14.5836 7.97705 15.1624 7.86431 15.7411C7.61627 16.9512 6.78198 17.7479 5.54932 17.9133C4.72254 18.026 3.89576 17.9659 3.06146 17.9584C2.77584 17.9584 2.54284 17.6953 2.52029 17.4097C2.49774 17.094 2.67813 16.8159 2.97878 16.7408C3.06897 16.7182 3.1742 16.7107 3.27191 16.7107C3.85066 16.7032 4.43692 16.7107 5.01567 16.7032C5.18103 16.7032 5.33887 16.6806 5.50422 16.6506C6.20323 16.5002 6.57152 16.1244 6.66172 15.3352C6.75191 14.4558 6.75943 13.5614 6.66172 12.6745C6.57152 11.8101 6.16565 11.4118 5.30128 11.3216C4.42941 11.2314 3.55001 11.2314 2.67813 11.3216C1.76115 11.4193 1.32522 11.9304 1.28763 12.8624C1.26509 13.5013 1.28012 14.1402 1.2726 14.779C1.26509 15.215 0.964438 15.4931 0.558563 15.448C0.303012 15.4179 0.0324289 15.1999 0.0324289 14.9444C0.0249127 14.065 -0.0652817 13.1781 0.0925585 12.3062C0.325561 11.051 1.07718 10.2768 2.3399 10.104C3.45982 9.94611 4.59476 9.9386 5.71468 10.119C6.95485 10.3219 7.73653 11.2088 7.90189 12.449C7.96953 12.9751 7.93195 13.4938 7.94699 14.0049Z" fill="white"/>
<path d="M10.044 3.95559C10.059 3.33926 10.0064 2.71542 10.1567 2.10661C10.4499 0.949112 11.2691 0.212525 12.4567 0.0622007C13.276 -0.0430261 14.1028 0.0171035 14.922 0.0171035C15.2076 0.0171035 15.4482 0.280171 15.4707 0.565786C15.5008 0.881467 15.3129 1.15957 15.0197 1.23473C14.9295 1.25728 14.8243 1.26479 14.7266 1.26479C14.1479 1.27231 13.5616 1.27231 12.9828 1.27231C12.81 1.27231 12.6446 1.29486 12.4793 1.33244C11.7802 1.49779 11.4195 1.8736 11.3368 2.66281C11.2466 3.53469 11.2466 4.41408 11.3368 5.28596C11.427 6.15784 11.8329 6.56371 12.7047 6.65391C13.5766 6.7441 14.456 6.7441 15.3279 6.65391C16.2599 6.5562 16.6883 6.03758 16.7184 5.09054C16.7409 4.45918 16.7259 3.8203 16.7334 3.18894C16.7409 2.753 17.0341 2.4749 17.4399 2.52C17.703 2.55006 17.9661 2.76052 17.9661 3.02358C17.9736 3.95559 18.0788 4.89512 17.8759 5.81209C17.6053 6.99965 16.8311 7.71369 15.6436 7.87153C14.5312 8.02186 13.3962 8.03689 12.2838 7.84898C11.0437 7.64605 10.2545 6.75914 10.0891 5.51896C10.0215 4.99283 10.059 4.47421 10.044 3.95559Z" fill="white"/>
</svg>
