<svg width="18" height="18" viewBox="0 0 18 18" fill="none" xmlns="http://www.w3.org/2000/svg">
<path d="M10.5472 0C10.8113 0.112711 10.9198 0.32874 10.967 0.601124C11.0189 0.929864 11.0943 1.25391 11.1557 1.58265C11.1745 1.69066 11.217 1.75171 11.3349 1.78459C11.717 1.8973 12.0896 2.05228 12.4387 2.24013C12.5425 2.29648 12.6132 2.28709 12.7075 2.22134C13.0142 2.00531 13.3302 1.80337 13.6462 1.59674C13.9292 1.41358 14.1651 1.43706 14.4057 1.67657C15.0425 2.31057 15.6792 2.94457 16.316 3.57857C16.5566 3.81808 16.5802 4.05289 16.3915 4.33467C16.184 4.64932 15.9764 4.95928 15.7642 5.26923C15.7028 5.35376 15.6887 5.42421 15.7406 5.52283C15.934 5.88445 16.0896 6.26484 16.2123 6.65464C16.2406 6.74387 16.2877 6.78613 16.3821 6.80022C16.7642 6.87067 17.1415 6.9505 17.5236 7.02564C17.8443 7.09139 18 7.27924 18 7.60329C18 8.50497 18 9.40666 18 10.3083C18 10.6324 17.8443 10.8249 17.5283 10.8907C17.1604 10.9658 16.7925 11.041 16.4198 11.1114C16.3066 11.1349 16.2359 11.1725 16.2028 11.2946C16.0943 11.6703 15.9387 12.0319 15.7547 12.3794C15.6934 12.4874 15.7075 12.5673 15.7783 12.6659C15.9859 12.9617 16.184 13.267 16.3868 13.5723C16.5896 13.8775 16.5708 14.1029 16.316 14.3565C15.684 14.9858 15.0519 15.6151 14.4198 16.2444C14.1698 16.4934 13.9434 16.5121 13.6462 16.3149C13.3349 16.113 13.033 15.9016 12.7217 15.7044C12.6368 15.648 12.6085 15.587 12.6085 15.493C12.6132 14.4786 12.6132 13.4642 12.6085 12.4545C12.6085 12.3606 12.6415 12.2949 12.7028 12.2197C13.9481 10.7498 14.3019 9.08261 13.6415 7.27924C12.9717 5.45708 11.6132 4.38163 9.68396 4.08577C6.9434 3.6678 4.35849 5.70129 4.09434 8.45331C3.95755 9.89038 4.37736 11.149 5.32547 12.2291C5.37736 12.2902 5.40566 12.3512 5.40566 12.4311C5.40566 13.4549 5.40094 14.4833 5.40566 15.5071C5.40566 15.5917 5.38208 15.648 5.3066 15.695C4.98113 15.9063 4.66038 16.1223 4.33491 16.3337C4.07547 16.5027 3.83491 16.4793 3.61793 16.2632C2.96698 15.6198 2.31604 14.9718 1.66981 14.3237C1.44811 14.0982 1.42453 13.8634 1.60377 13.591C1.81604 13.267 2.03302 12.9477 2.25 12.6283C2.30189 12.5532 2.31132 12.4921 2.26415 12.4029C2.06604 12.0366 1.90566 11.6515 1.78774 11.2523C1.75472 11.1443 1.68868 11.1208 1.59906 11.102C1.23113 11.0316 0.863208 10.9564 0.490566 10.8813C0.160377 10.8155 0 10.6324 0 10.299C0 9.39727 0 8.49558 0 7.59389C0 7.26985 0.160377 7.0773 0.476415 7.01625C0.84434 6.94111 1.21226 6.87067 1.58491 6.80022C1.6934 6.78144 1.75943 6.73917 1.79245 6.62646C1.90566 6.23667 2.06604 5.86566 2.25472 5.50874C2.30189 5.41951 2.30189 5.35376 2.24057 5.26923C2.02359 4.95458 1.81132 4.63993 1.60377 4.32058C1.41509 4.03411 1.43868 3.80399 1.67925 3.56448C2.31604 2.93048 2.95283 2.29648 3.58962 1.66249C3.83019 1.42297 4.06604 1.3948 4.34906 1.58265C4.66509 1.78928 4.97642 1.99592 5.28774 2.20725C5.38208 2.273 5.45755 2.28239 5.5566 2.22604C5.91038 2.03819 6.2783 1.88321 6.66038 1.7705C6.77359 1.73763 6.81604 1.67188 6.83491 1.56386C6.89623 1.23512 6.9717 0.911079 7.02359 0.582339C7.06604 0.32874 7.17925 0.117407 7.4434 0C8.47642 0 9.51415 0 10.5472 0Z" fill="white"/>
<path d="M7.58018 14.7932C7.58018 13.915 7.58018 13.0368 7.58489 12.1586C7.58489 12.0412 7.55188 11.9754 7.44338 11.9144C6.22169 11.2381 5.59904 10.1955 5.65093 8.80544C5.6981 7.62197 6.27829 6.71559 7.28772 6.09568C7.58961 5.90783 7.91508 6.0722 7.96697 6.42442C8.06603 7.09129 8.16508 7.75817 8.25471 8.42504C8.27357 8.57062 8.32074 8.62698 8.48112 8.62228C8.82546 8.60819 9.17452 8.60819 9.52357 8.62228C9.66508 8.62698 9.71225 8.58002 9.73112 8.44382C9.82074 7.77695 9.9198 7.11008 10.0189 6.44321C10.0755 6.05811 10.3962 5.90313 10.7311 6.11447C11.8113 6.80482 12.3773 7.79104 12.3396 9.06843C12.3066 10.3176 11.7028 11.2616 10.6085 11.8815C10.4528 11.9707 10.4009 12.0553 10.4009 12.229C10.4104 13.9385 10.4056 15.6479 10.4056 17.3574C10.4056 17.8035 10.2123 18.0008 9.75942 18.0008C9.23112 18.0008 8.70282 18.0008 8.1698 18.0008C7.79244 18.0008 7.58018 17.7894 7.57546 17.4137C7.58018 16.5402 7.58018 15.6667 7.58018 14.7932Z" fill="white"/>
</svg>
