<svg width="30" height="30" viewBox="0 0 30 30" fill="none" xmlns="http://www.w3.org/2000/svg">
<rect opacity="0.14" width="30" height="30" rx="3.17073" fill="#007AD0"/>
<path d="M25 19.1598C24.8435 19.5407 24.5617 19.6712 24.1547 19.6712C18.029 19.6659 11.9032 19.6659 5.77746 19.6659C5.36525 19.6659 5.10436 19.4937 5.02087 19.1598C5 19.0868 5 19.0033 5 18.9302C5 16.0917 5 13.2532 5 10.4147C5 9.93988 5.26611 9.66855 5.7305 9.66855C6.7845 9.66855 7.83851 9.66855 8.89251 9.66855C8.92382 9.66855 8.95513 9.66855 8.99165 9.66855C9.18993 9.6842 9.33081 9.81987 9.33081 10.0025C9.33081 10.1851 9.18993 10.3312 8.99165 10.3312C8.47509 10.3364 7.96374 10.3312 7.44717 10.3312C6.91495 10.3312 6.37751 10.3364 5.84529 10.326C5.69919 10.326 5.65745 10.3573 5.65745 10.5086C5.66267 11.4583 5.66267 12.4079 5.66267 13.3576C5.66267 15.1682 5.66788 16.9787 5.65745 18.7841C5.65745 18.9563 5.69919 18.9981 5.87138 18.9981C8.05766 18.9928 10.2439 18.9928 12.4354 18.9928C12.4928 18.9928 12.5502 18.9928 12.6598 18.9928C11.1414 17.9127 10.3431 16.4935 10.3379 14.662C10.3379 12.8306 11.1362 11.4061 12.6598 10.326C12.5502 10.326 12.4876 10.326 12.425 10.326C11.8458 10.326 11.2666 10.326 10.6875 10.326C10.4735 10.326 10.3326 10.1851 10.3379 9.99205C10.3431 9.80421 10.4735 9.67898 10.677 9.66855C10.7344 9.66333 10.7918 9.66855 10.8544 9.66855C15.2896 9.66855 19.7195 9.67377 24.1547 9.66333C24.5617 9.66333 24.8435 9.79899 25 10.1747C25 13.1697 25 16.1648 25 19.1598ZM17.3506 18.9928C17.4133 18.9981 17.4393 19.0033 17.4602 19.0033C19.6987 19.0033 21.9371 19.0033 24.1756 19.0085C24.3373 19.0085 24.3321 18.9354 24.3321 18.8206C24.3321 16.0552 24.3321 13.2897 24.3321 10.5243C24.3321 10.3834 24.306 10.3364 24.1547 10.3364C21.9371 10.3417 19.7143 10.3416 17.4967 10.3416C17.4602 10.3416 17.408 10.3156 17.3819 10.373C20.4344 12.387 20.424 16.9683 17.3506 18.9928ZM11.0005 14.4011C11.0005 15.596 11.251 16.4465 11.7623 17.2136C13.1033 19.2224 15.7644 19.5981 17.5176 18.0275C19.3595 16.3787 19.4952 13.4202 17.815 11.6044C16.5053 10.1956 14.4756 9.919 12.9207 10.973C11.6267 11.8496 11.0423 13.128 11.0005 14.4011Z" fill="#007AD0"/>
<path d="M22.2815 6.00036C22.558 6.00036 22.8085 6.16733 22.9024 6.4491C23.1529 7.17438 23.3929 7.89966 23.6329 8.63016C23.7007 8.83365 23.612 9.01628 23.4346 9.07367C23.252 9.13629 23.0746 9.04758 23.0068 8.84409C22.7824 8.19186 22.558 7.54484 22.3545 6.8874C22.2971 6.69955 22.2241 6.68912 22.0571 6.74651C19.7874 7.51354 17.5176 8.27534 15.2426 9.03193C15.2009 9.04758 15.1591 9.06324 15.1122 9.07367C14.9139 9.12585 14.7417 9.04237 14.6843 8.87018C14.6165 8.68755 14.7052 8.51015 14.9087 8.4371C15.3783 8.27534 15.8531 8.11881 16.3279 7.95705C18.1855 7.33613 20.043 6.70999 21.9058 6.08907C22.0258 6.04732 22.151 5.99514 22.2815 6.00036Z" fill="#007AD0"/>
<path d="M7.71851 23.3341C7.43675 23.3341 7.18108 23.1619 7.08194 22.8697C6.8367 22.1549 6.6019 21.44 6.36709 20.7252C6.29404 20.506 6.37231 20.3234 6.55493 20.2608C6.748 20.193 6.92018 20.2921 6.99845 20.5269C7.2176 21.1739 7.44197 21.8157 7.64546 22.468C7.69764 22.6401 7.76026 22.6558 7.91679 22.5984C10.1866 21.8314 12.4615 21.0748 14.7365 20.313C14.7783 20.2973 14.82 20.2817 14.867 20.2712C15.0757 20.2086 15.2531 20.2921 15.3105 20.4695C15.3679 20.6521 15.2844 20.8296 15.0809 20.8974C14.5695 21.0748 14.0582 21.2418 13.5468 21.414C11.731 22.0244 9.91001 22.6297 8.0942 23.2402C7.97419 23.2819 7.84896 23.3289 7.71851 23.3341Z" fill="#007AD0"/>
<path d="M6.33051 12.0009C6.33051 11.7921 6.32529 11.5834 6.33051 11.3747C6.33573 11.1295 6.46096 11.0042 6.7062 10.999C7.12362 10.9938 7.54105 10.9938 7.95326 10.999C8.18285 10.999 8.32373 11.1347 8.31851 11.3382C8.31329 11.5417 8.17763 11.6617 7.93761 11.6617C7.6715 11.6669 7.40539 11.6669 7.13928 11.6617C7.01927 11.6565 6.98274 11.7034 6.98796 11.8182C6.99318 12.0843 6.99318 12.3505 6.98796 12.6166C6.98274 12.8566 6.86273 12.9922 6.65924 12.9922C6.45574 12.9922 6.33051 12.8566 6.32529 12.6218C6.32529 12.4131 6.33051 12.2096 6.33051 12.0009Z" fill="#007AD0"/>
<path d="M6.33054 17.323C6.33054 17.1143 6.32533 16.9056 6.33054 16.6968C6.33576 16.4777 6.46621 16.342 6.65927 16.3368C6.86276 16.3316 6.99321 16.4725 6.99321 16.7073C6.99843 16.9786 6.99843 17.2552 6.99321 17.5265C6.99321 17.6361 7.02973 17.6726 7.13931 17.6726C7.41064 17.6674 7.68718 17.6674 7.95851 17.6726C8.1881 17.6778 8.31854 17.7926 8.32376 17.9909C8.32898 18.1944 8.19331 18.3352 7.96373 18.3352C7.54108 18.3405 7.11844 18.3405 6.69579 18.3352C6.46099 18.33 6.33576 18.2048 6.33054 17.97C6.32533 17.7508 6.33054 17.5369 6.33054 17.323Z" fill="#007AD0"/>
<path d="M23.6642 11.9904C23.6642 12.2044 23.6694 12.4183 23.6642 12.6322C23.659 12.8618 23.5233 12.9975 23.3198 12.9922C23.1216 12.987 23.0068 12.8566 23.0015 12.627C22.9963 12.3609 22.9963 12.0948 23.0015 11.8287C23.0068 11.7034 22.9702 11.6565 22.8398 11.6617C22.5737 11.6721 22.3076 11.6669 22.0415 11.6617C21.8067 11.6565 21.671 11.5313 21.671 11.3278C21.671 11.1347 21.8067 10.999 22.031 10.999C22.4537 10.9938 22.8763 10.9938 23.299 10.999C23.5338 11.0042 23.659 11.1295 23.6694 11.3643C23.6694 11.573 23.6642 11.7817 23.6642 11.9904Z" fill="#007AD0"/>
<path d="M23.6642 17.3232C23.6642 17.5371 23.6694 17.751 23.6642 17.965C23.659 18.1998 23.5338 18.3302 23.299 18.3302C22.8763 18.3354 22.4537 18.3354 22.031 18.3302C21.8014 18.325 21.6658 18.1893 21.671 17.9858C21.6762 17.7876 21.8067 17.6728 22.0362 17.6676C22.3076 17.6623 22.5841 17.6623 22.8554 17.6676C22.965 17.6676 23.0015 17.6362 23.0015 17.5215C22.9963 17.2501 22.9963 16.9736 23.0015 16.7023C23.0068 16.4675 23.132 16.3318 23.3355 16.3318C23.5286 16.3318 23.659 16.4727 23.6642 16.6918C23.6694 16.9057 23.6642 17.1145 23.6642 17.3232Z" fill="#007AD0"/>
<path d="M14.6635 15.7839C14.6635 15.57 14.6583 15.356 14.6635 15.1421C14.6687 15.0169 14.6217 14.9699 14.4965 14.9334C13.8651 14.756 13.4634 14.3385 13.3538 13.6863C13.239 13.0184 13.7086 12.3088 14.3974 12.0949C14.5435 12.0479 14.6687 12.027 14.7104 11.8444C14.7417 11.7192 14.8774 11.6618 15.0079 11.6722C15.1487 11.6827 15.2635 11.7557 15.3001 11.8914C15.3261 12.0062 15.3835 12.0375 15.4931 12.0688C16.1297 12.2358 16.568 12.7419 16.6463 13.3941C16.6776 13.6341 16.5732 13.8011 16.3697 13.8324C16.1767 13.8585 16.0306 13.7333 15.994 13.4985C15.9471 13.1645 15.7853 12.9141 15.4775 12.7732C15.3731 12.7262 15.3261 12.7419 15.3261 12.8723C15.3314 13.3263 15.3314 13.7855 15.3261 14.2394C15.3261 14.3699 15.3992 14.3803 15.4931 14.4064C16.1245 14.589 16.521 15.0012 16.6358 15.6534C16.7506 16.3213 16.281 17.031 15.5923 17.2449C15.4462 17.2918 15.3209 17.3127 15.2792 17.4953C15.2479 17.6206 15.1122 17.678 14.9818 17.6675C14.8409 17.6571 14.7261 17.584 14.6948 17.4432C14.6687 17.3284 14.6061 17.2971 14.5017 17.2658C13.8547 17.0988 13.4164 16.5822 13.3434 15.9196C13.3173 15.6952 13.4268 15.5282 13.6251 15.5021C13.813 15.476 13.9643 15.596 13.9956 15.8152C14.0426 16.1544 14.1991 16.4152 14.5174 16.5613C14.6217 16.6083 14.6739 16.5927 14.6687 16.4622C14.6583 16.2431 14.6635 16.0135 14.6635 15.7839ZM14.6635 13.5246C14.6635 13.3054 14.6583 13.081 14.6635 12.8619C14.6687 12.7471 14.627 12.7262 14.5226 12.7628C14.2461 12.8619 13.9956 13.2063 13.9956 13.5037C13.9956 13.8063 14.2513 14.1507 14.5383 14.2446C14.6217 14.2707 14.6583 14.2603 14.6583 14.1664C14.6635 13.9524 14.6635 13.7385 14.6635 13.5246ZM15.3314 15.8204C15.3314 16.0343 15.3366 16.2483 15.3314 16.4622C15.3261 16.5822 15.3627 16.6135 15.4775 16.5666C15.754 16.457 15.9992 16.1126 15.994 15.8204C15.9888 15.523 15.7384 15.1891 15.4566 15.0899C15.3679 15.0586 15.3261 15.0638 15.3261 15.1734C15.3366 15.3925 15.3314 15.6065 15.3314 15.8204Z" fill="#007AD0"/>
</svg>
