<svg width="30" height="30" viewBox="0 0 30 30" fill="none" xmlns="http://www.w3.org/2000/svg">
<rect opacity="0.14" width="30" height="30" rx="3.17073" fill="#B552F8"/>
<path d="M25 14.7448C25 17.6667 25 20.5938 25 23.5156C24.9896 23.5365 24.9792 23.5625 24.974 23.5833C24.724 24.5156 24.1458 24.9583 23.1823 24.9583C18.8333 24.9583 14.4896 24.9583 10.1406 24.9583C9.03125 24.9583 8.33333 24.2656 8.32812 23.1667C8.32812 22.2135 8.32292 21.2552 8.33333 20.3021C8.33333 20.1458 8.28646 20.0417 8.17708 19.9323C7.38021 19.1458 6.59896 18.349 5.79688 17.5677C5.42188 17.2083 5.09896 16.8281 5 16.3073C5 16.151 5 15.9948 5 15.8385C5.10937 15.3125 5.44792 14.9375 5.8125 14.5729C8.75521 11.6458 11.6875 8.71875 14.6146 5.78125C14.974 5.42187 15.3438 5.09896 15.8594 5C16.0156 5 16.1719 5 16.3281 5C16.7031 5.09375 17.0417 5.25521 17.3229 5.53646C19.25 7.46875 21.1875 9.39583 23.1146 11.3281C23.6458 11.8594 23.776 12.4844 23.5104 13.1875C23.4688 13.3021 23.4688 13.3281 23.6042 13.3542C24.3333 13.5 24.7865 13.9375 24.9635 14.6615C24.974 14.6875 24.9896 14.7188 25 14.7448ZM16.6615 24.2969C18.849 24.2969 21.0365 24.2969 23.224 24.2969C23.9323 24.2969 24.3333 23.8906 24.3333 23.1823C24.3333 20.4844 24.3333 17.7917 24.3333 15.0938C24.3333 14.3854 23.9271 13.9792 23.2187 13.9792C18.849 13.9792 14.4844 13.9792 10.1146 13.9792C9.39583 13.9792 8.99479 14.3802 8.99479 15.1042C8.99479 17.7917 8.99479 20.4844 8.99479 23.1719C8.99479 23.8906 9.39583 24.2969 10.1198 24.2969C12.3021 24.2969 14.4844 24.2969 16.6615 24.2969ZM13.25 13.3021C13.3125 13.3073 13.3646 13.3125 13.4219 13.3125C16.4427 13.3125 19.4583 13.3125 22.4792 13.3177C22.6042 13.3177 22.6875 13.276 22.7604 13.1823C23.0885 12.776 23.0573 12.2031 22.6615 11.8073C21.3854 10.526 20.1042 9.25521 18.8281 7.97396C18.7135 7.85937 18.6615 7.85417 18.5469 7.96875C16.8281 9.69271 15.099 11.4167 13.375 13.1406C13.3281 13.1875 13.2708 13.2187 13.25 13.3021ZM16.8177 5.98437C16.7604 5.93229 16.7396 5.90625 16.7135 5.88542C16.2812 5.55729 15.7344 5.60938 15.3177 6.02083C12.2188 9.11979 9.11979 12.2135 6.02083 15.3125C5.95312 15.3802 5.88542 15.4531 5.83333 15.5365C5.60417 15.8802 5.61979 16.349 5.86458 16.6719C5.92708 16.7552 5.96354 16.7812 6.05208 16.6927C6.86458 15.875 7.6875 15.0729 8.48958 14.2448C8.6875 14.0417 8.8125 13.7708 9.06771 13.6198C9.20833 13.5365 9.32292 13.4219 9.44271 13.3073C11.8385 10.9115 14.2396 8.52083 16.6354 6.125C16.6823 6.07292 16.75 6.03125 16.8177 5.98437ZM10.401 13.25C10.4115 13.2656 10.4167 13.2865 10.4271 13.3021C10.4583 13.3073 10.4896 13.3125 10.5156 13.3125C11.0573 13.3125 11.5938 13.3125 12.1354 13.3177C12.2396 13.3177 12.3021 13.2708 12.3698 13.2031C12.9271 12.6458 13.4844 12.0885 14.0417 11.5365C15.3906 10.1927 16.7344 8.84375 18.0885 7.5C18.1979 7.39062 18.1979 7.33333 18.0885 7.22917C17.8594 7.01562 17.6354 6.79688 17.4271 6.56771C17.3125 6.4375 17.25 6.44792 17.125 6.56771C14.9323 8.76042 12.7396 10.9531 10.5417 13.1406C10.4948 13.1823 10.4479 13.2135 10.401 13.25ZM8.32812 15.3542C7.6875 15.9896 7.09896 16.5833 6.5 17.1719C6.42708 17.2448 6.45312 17.2865 6.51042 17.3438C6.76562 17.5938 7.02083 17.8438 7.27083 18.1042C7.33854 18.1771 7.38542 18.1875 7.45312 18.1094C7.57812 17.9688 7.70312 17.8229 7.85417 17.7135C8.24479 17.4219 8.38542 17.0573 8.33333 16.5729C8.29688 16.1823 8.32812 15.7917 8.32812 15.3542ZM8.31771 18.2344C8.30208 18.224 8.28646 18.2135 8.26562 18.2031C8.14583 18.3333 8.02083 18.4688 7.89583 18.599C7.84896 18.6458 7.84375 18.6771 7.89583 18.724C8.02604 18.8542 8.15104 18.9844 8.31771 19.1562C8.31771 18.8073 8.31771 18.5208 8.31771 18.2344Z" fill="#B552F8"/>
<path d="M11.3333 17.6407C11.0104 17.6407 10.6823 17.6459 10.3594 17.6407C9.95313 17.6355 9.68229 17.3855 9.67188 16.9792C9.66146 16.5365 9.66146 16.0938 9.67188 15.6563C9.68229 15.2448 9.95833 14.9896 10.3802 14.9896C11.0156 14.9896 11.6563 14.9896 12.2917 14.9896C12.724 14.9896 13 15.2657 13.0052 15.6927C13.0104 16.1094 13.0104 16.5261 13.0052 16.9375C13 17.3698 12.7292 17.6407 12.2969 17.6407C11.974 17.6407 11.6563 17.6407 11.3333 17.6407ZM11.3333 16.974C11.6198 16.974 11.9063 16.9688 12.1927 16.974C12.3021 16.974 12.3437 16.948 12.3385 16.8334C12.3333 16.4844 12.3333 16.1302 12.3385 15.7813C12.3385 15.6615 12.2917 15.6407 12.1875 15.6407C11.6198 15.6459 11.0573 15.6459 10.4896 15.6407C10.375 15.6407 10.3281 15.6719 10.3333 15.7917C10.3385 16.1355 10.3385 16.4792 10.3333 16.823C10.3281 16.948 10.3802 16.974 10.4948 16.974C10.7708 16.9688 11.0521 16.974 11.3333 16.974Z" fill="#B552F8"/>
<path d="M16 20.3072C16.2135 20.3072 16.4323 20.302 16.6458 20.3072C16.8594 20.3125 16.9896 20.4375 16.9948 20.625C17 20.8177 16.8698 20.9635 16.651 20.9687C16.2135 20.9791 15.7813 20.9791 15.3438 20.9687C15.1354 20.9635 15.0052 20.8229 15 20.6406C15 20.4479 15.1354 20.3177 15.3542 20.3072C15.5729 20.302 15.7865 20.3072 16 20.3072Z" fill="#B552F8"/>
<path d="M13.3437 20.3072C13.5521 20.3072 13.7604 20.302 13.9687 20.3072C14.1927 20.3125 14.3281 20.4427 14.3333 20.6302C14.3385 20.8177 14.1979 20.9635 13.9792 20.9687C13.5521 20.9791 13.1198 20.9791 12.6927 20.9687C12.4687 20.9635 12.3385 20.8281 12.3437 20.6354C12.3437 20.4427 12.474 20.3229 12.7031 20.3072C12.7135 20.3072 12.7292 20.3072 12.7396 20.3072C12.9375 20.3072 13.1406 20.3072 13.3437 20.3072Z" fill="#B552F8"/>
<path d="M13.3438 21.6406C13.5573 21.6406 13.7708 21.6354 13.9844 21.6406C14.1875 21.6458 14.3281 21.776 14.3333 21.9583C14.3385 22.1354 14.2031 22.2969 14.0052 22.2969C13.5573 22.3073 13.1094 22.3073 12.6615 22.2969C12.4583 22.2917 12.3333 22.1458 12.3385 21.9583C12.3438 21.7708 12.4688 21.6458 12.6823 21.6406C12.901 21.6354 13.125 21.6406 13.3438 21.6406Z" fill="#B552F8"/>
<path d="M10.6615 22.3021C10.4531 22.3021 10.2448 22.3073 10.0365 22.3021C9.80729 22.2969 9.66666 22.1563 9.66666 21.9583C9.67187 21.7656 9.80729 21.6406 10.0312 21.6406C10.4531 21.6354 10.875 21.6354 11.3021 21.6406C11.5208 21.6406 11.6615 21.7812 11.6615 21.9687C11.6615 22.1562 11.5208 22.2969 11.3021 22.3021C11.0937 22.3073 10.875 22.3021 10.6615 22.3021Z" fill="#B552F8"/>
<path d="M10.6667 20.3072C10.8802 20.3072 11.0937 20.302 11.3125 20.3072C11.5312 20.3125 11.6719 20.4531 11.6667 20.6406C11.6615 20.8229 11.5312 20.9635 11.3229 20.9687C10.8854 20.9791 10.4531 20.9791 10.0156 20.9687C9.79687 20.9635 9.66666 20.8177 9.67187 20.625C9.67708 20.4427 9.8125 20.3177 10.0208 20.3125C10.2396 20.302 10.4531 20.3072 10.6667 20.3072Z" fill="#B552F8"/>
<path d="M10.3229 18.9688C10.3229 19.099 10.3333 19.2292 10.3177 19.3594C10.2969 19.5313 10.1615 19.6355 9.99479 19.6355C9.82813 19.6355 9.6875 19.5313 9.67709 19.3594C9.66146 19.1094 9.66146 18.8542 9.67709 18.6042C9.6875 18.4219 9.81771 18.3282 9.98959 18.3177C10.1563 18.3073 10.2917 18.4323 10.3229 18.6094C10.3281 18.6302 10.3281 18.6459 10.3281 18.6667C10.3281 18.7709 10.3281 18.875 10.3281 18.9792C10.3281 18.9688 10.3281 18.9688 10.3229 18.9688Z" fill="#B552F8"/>
<path d="M15.6615 18.9739C15.6615 19.0885 15.6667 19.2083 15.6615 19.3229C15.6458 19.5104 15.5104 19.6354 15.3281 19.6354C15.1563 19.6354 15.0156 19.5156 15.0052 19.3333C14.9948 19.0937 14.9948 18.8541 15.0052 18.6146C15.0156 18.4427 15.1615 18.3125 15.3281 18.3073C15.5 18.3021 15.651 18.4375 15.6615 18.6198C15.6719 18.7396 15.6615 18.8541 15.6615 18.9739Z" fill="#B552F8"/>
<path d="M12.3385 18.9739C12.3385 18.8593 12.3333 18.7395 12.3385 18.625C12.349 18.4479 12.4792 18.3177 12.651 18.3125C12.8073 18.302 12.9635 18.4114 12.9844 18.5781C13.0208 18.8437 13.0156 19.1093 12.9844 19.375C12.9635 19.552 12.8073 19.651 12.6302 19.6354C12.4635 19.6197 12.349 19.5052 12.3385 19.3281C12.3333 19.2083 12.3385 19.0885 12.3385 18.9739Z" fill="#B552F8"/>
<path d="M14.3333 18.9792C14.3333 19.0886 14.3385 19.198 14.3333 19.3126C14.3177 19.5157 14.1771 19.6407 13.9896 19.6355C13.8073 19.6303 13.6771 19.5053 13.6719 19.3073C13.6667 19.0782 13.6667 18.8542 13.6719 18.6251C13.6771 18.448 13.8125 18.3178 13.9844 18.3073C14.1562 18.2969 14.3125 18.4271 14.3333 18.6094C14.3437 18.7292 14.3333 18.8542 14.3333 18.9792Z" fill="#B552F8"/>
<path d="M18.3281 19C18.3281 19.1094 18.3333 19.2188 18.3281 19.3282C18.3125 19.5052 18.1979 19.6198 18.0312 19.6302C17.8594 19.6407 17.6979 19.5365 17.6823 19.3594C17.6615 19.1042 17.6615 18.8386 17.6823 18.5834C17.6927 18.4063 17.8594 18.2917 18.026 18.3073C18.1927 18.3177 18.3229 18.448 18.3333 18.6302C18.3333 18.75 18.3281 18.875 18.3281 19Z" fill="#B552F8"/>
<path d="M11.0052 18.9688C11.0052 18.8542 11 18.7344 11.0052 18.6198C11.0208 18.4428 11.151 18.3178 11.3229 18.3126C11.4792 18.3073 11.6302 18.4167 11.651 18.5834C11.6823 18.849 11.6875 19.1146 11.651 19.3751C11.625 19.5521 11.4948 19.6355 11.3125 19.6303C11.1458 19.6251 11.0208 19.5105 11.0052 19.3334C11 19.2136 11.0052 19.0886 11.0052 18.9688Z" fill="#B552F8"/>
<path d="M21.6719 18.9635C21.6719 18.8489 21.6667 18.7291 21.6719 18.6146C21.6823 18.4323 21.7969 18.3333 21.974 18.3125C22.1302 18.2916 22.2917 18.401 22.3177 18.5677C22.3594 18.8385 22.3594 19.1094 22.3177 19.3802C22.2917 19.5573 22.1354 19.6562 21.9583 19.6302C21.7812 19.6041 21.6823 19.4948 21.6719 19.3177C21.6667 19.1979 21.6719 19.0833 21.6719 18.9635Z" fill="#B552F8"/>
<path d="M19.6562 18.9948C19.6562 19.1094 19.6667 19.2292 19.6562 19.3438C19.6406 19.5157 19.5104 19.6302 19.3437 19.6355C19.1771 19.6407 19.0312 19.5417 19.0104 19.3698C18.9792 19.1042 18.974 18.8386 19.0104 18.573C19.0312 18.4063 19.1875 18.2917 19.3437 18.3073C19.5156 18.323 19.6354 18.4219 19.651 18.6042C19.6667 18.7344 19.6615 18.8646 19.6562 18.9948Z" fill="#B552F8"/>
<path d="M20.3438 18.9688C20.3438 18.8438 20.3333 18.724 20.3438 18.599C20.3594 18.4271 20.4948 18.3125 20.6563 18.3073C20.8177 18.3021 20.9635 18.4115 20.9844 18.5781C21.0156 18.8438 21.0208 19.1094 20.9844 19.375C20.9635 19.5469 20.8177 19.6406 20.6458 19.6354C20.4792 19.6302 20.3594 19.5156 20.3385 19.3386C20.3333 19.3177 20.3333 19.3021 20.3333 19.2813C20.3333 19.1771 20.3333 19.0729 20.3333 18.9688C20.3385 18.9688 20.3385 18.9688 20.3438 18.9688Z" fill="#B552F8"/>
</svg>
