<svg width="30" height="30" viewBox="0 0 30 30" fill="none" xmlns="http://www.w3.org/2000/svg">
<rect opacity="0.14" width="30" height="30" rx="3.17073" fill="#F79F1A"/>
<path d="M25.7301 22.9654C25.6714 23.0668 25.586 23.1361 25.4846 23.1948C24.5989 23.7071 23.7078 24.214 22.8274 24.7316C22.6459 24.8383 22.4965 24.8383 22.3098 24.7316C21.4987 24.2513 20.677 23.7871 19.8606 23.3122C19.7326 23.2375 19.6418 23.2429 19.5191 23.3176C18.7027 23.7924 17.8863 24.262 17.07 24.7369C16.8939 24.8383 16.7498 24.8436 16.5737 24.7369C15.6933 24.2193 14.8022 23.7071 13.9164 23.2002C13.7297 23.0934 13.6603 22.9654 13.6603 22.752C13.671 21.7275 13.671 20.703 13.6603 19.6785C13.6603 19.4811 13.7297 19.3583 13.9004 19.2623C14.7275 18.7927 15.5492 18.3125 16.3709 17.8429C16.499 17.7682 16.5417 17.6882 16.5417 17.5441C16.5364 16.5997 16.5417 15.6552 16.5364 14.7108C16.5364 14.5027 16.6057 14.38 16.7871 14.2786C17.6782 13.7717 18.564 13.2594 19.4444 12.7418C19.6205 12.6405 19.7699 12.6351 19.946 12.7365C20.8264 13.2541 21.7175 13.7663 22.6033 14.2732C22.79 14.38 22.8647 14.508 22.8594 14.7215C22.8487 15.6659 22.8594 16.6104 22.854 17.5548C22.854 17.6935 22.8914 17.7682 23.0141 17.8376C23.8198 18.2965 24.6149 18.7607 25.4153 19.2196C25.5273 19.2836 25.6394 19.3583 25.7301 19.449C25.7301 20.6229 25.7301 21.7915 25.7301 22.9654ZM22.2831 15.0896C22.1817 15.143 22.123 15.1803 22.059 15.2177C21.3547 15.6232 20.6503 16.0234 19.9513 16.4343C19.7699 16.541 19.6205 16.5463 19.4337 16.4396C18.7241 16.0181 18.0091 15.6125 17.2941 15.2017C17.2407 15.1697 17.1873 15.1216 17.118 15.1216C17.1126 15.1377 17.102 15.1483 17.102 15.159C17.102 15.9861 17.102 16.8078 17.0966 17.6348C17.0966 17.7309 17.1447 17.7736 17.214 17.8163C17.9984 18.2645 18.7828 18.718 19.5618 19.1716C19.6418 19.2196 19.7112 19.2303 19.7966 19.1769C20.581 18.718 21.3707 18.2645 22.1604 17.8109C22.2297 17.7736 22.2724 17.7309 22.2724 17.6402C22.2831 16.8024 22.2831 15.9647 22.2831 15.0896ZM19.994 20.1C19.9887 20.1214 19.9833 20.1374 19.9833 20.1534C19.9833 20.9698 19.9833 21.7915 19.978 22.6079C19.978 22.7093 20.0314 22.7466 20.1007 22.7893C20.8851 23.2429 21.6641 23.6911 22.4485 24.1446C22.5392 24.198 22.6086 24.1926 22.6993 24.1393C23.4677 23.6911 24.2414 23.2429 25.0151 22.8053C25.1325 22.7413 25.1645 22.6666 25.1645 22.5385C25.1591 21.7808 25.1645 21.0231 25.1591 20.2654C25.1591 20.0627 25.1591 20.0573 24.9671 20.1694C24.2627 20.5749 23.5584 20.9751 22.8647 21.386C22.6566 21.5087 22.4859 21.5194 22.2778 21.3913C21.5894 20.9804 20.8904 20.5802 20.1914 20.1801C20.1327 20.148 20.0794 20.0893 19.994 20.1ZM19.4124 21.4073C19.4124 21.0285 19.4124 20.6496 19.4124 20.2708C19.4124 20.0627 19.4124 20.0627 19.2256 20.1694C18.5 20.5856 17.7743 21.0018 17.0539 21.4287C16.8939 21.5247 16.7551 21.5247 16.5897 21.4287C15.864 21.0018 15.1277 20.5856 14.402 20.1587C14.2633 20.0787 14.2313 20.1 14.2313 20.2601C14.2366 21.0338 14.2366 21.8022 14.2313 22.5759C14.2313 22.6933 14.2739 22.752 14.37 22.8106C15.149 23.2535 15.9281 23.7017 16.7018 24.1553C16.7925 24.2086 16.8619 24.2086 16.9526 24.1553C17.7263 23.7017 18.5053 23.2535 19.2843 22.8106C19.3857 22.752 19.4231 22.6879 19.4177 22.5759C19.4071 22.181 19.4124 21.7915 19.4124 21.4073ZM21.979 14.5987C21.9523 14.572 21.9363 14.5507 21.9149 14.54C21.2106 14.1292 20.5009 13.7236 19.7966 13.3128C19.7005 13.2541 19.6365 13.2914 19.5618 13.3395C18.8895 13.729 18.2172 14.1132 17.5448 14.5027C17.5022 14.5294 17.4435 14.54 17.4275 14.6094C18.1478 15.0256 18.8735 15.4418 19.5992 15.8633C19.6632 15.9007 19.7165 15.9114 19.7806 15.874C20.5116 15.4471 21.2426 15.0256 21.979 14.5987ZM20.2875 19.5558C20.3248 19.5878 20.3355 19.6038 20.3515 19.6145C21.0612 20.0253 21.7655 20.4308 22.4699 20.8417C22.5659 20.9004 22.6299 20.8631 22.7046 20.8204C23.377 20.4308 24.0493 20.0413 24.7216 19.6518C24.7643 19.6251 24.8283 19.6198 24.8283 19.5451C24.108 19.1289 23.3823 18.7074 22.6566 18.2912C22.5926 18.2538 22.5392 18.2538 22.4752 18.2912C21.7549 18.7074 21.0292 19.1289 20.2875 19.5558ZM14.5407 19.5558C14.5674 19.5824 14.5781 19.6038 14.5941 19.6091C15.3091 20.02 16.0188 20.4308 16.7338 20.847C16.8245 20.9004 16.8779 20.8631 16.9526 20.8257C17.6249 20.4362 18.2972 20.0467 18.9695 19.6571C19.0122 19.6305 19.0709 19.6198 19.0922 19.5451C18.3879 19.1396 17.6782 18.734 16.9739 18.3178C16.8565 18.2485 16.7765 18.2591 16.6698 18.3232C16.0988 18.6593 15.5225 18.9902 14.9463 19.321C14.8129 19.3957 14.6795 19.4757 14.5407 19.5558Z" fill="#F79F1A" stroke="#EE7D31" stroke-width="0.2"/>
<path d="M13.1214 19.3851C13.1214 20.8151 13.1054 22.2504 13.1267 23.6805C13.1481 24.8223 11.9902 25.2492 11.2165 24.849C10.7523 24.6089 10.5549 24.214 10.5549 23.7071C10.5549 22.2825 10.5549 20.8578 10.5495 19.4331C10.5495 19.1236 10.3734 18.9689 10.0853 19.0116C9.90387 19.0382 9.79716 19.1396 9.78115 19.3264C9.77581 19.4011 9.77581 19.4705 9.77581 19.5452C9.77581 20.9165 9.77581 22.2878 9.77048 23.6591C9.77048 24.3261 9.46633 24.7583 8.89006 24.9344C8.00964 25.2012 7.20392 24.6249 7.19858 23.7071C7.19325 22.4212 7.19858 21.1352 7.19858 19.8546C7.19858 19.6145 7.19858 19.6145 6.98515 19.6946C6.11006 20.0094 5.27233 19.4331 5.27233 18.5047C5.26699 17.2401 5.27233 15.9755 5.27233 14.7108C5.27233 13.0087 6.35551 11.7281 8.03632 11.4293C8.30311 11.3813 8.57524 11.3492 8.84737 11.3492C11.2965 11.3492 13.7457 11.3492 16.1949 11.3492C16.7711 11.3492 17.2354 11.5627 17.4915 12.1069C17.9024 12.982 17.2941 13.9532 16.3123 13.9798C15.5866 13.9958 14.8609 13.9852 14.1352 13.9852C13.4842 13.9852 13.1107 14.3587 13.1107 15.015C13.1214 16.4717 13.1214 17.9284 13.1214 19.3851ZM7.78553 19.1663C7.78553 20.2922 7.78553 21.418 7.78553 22.5386C7.78553 22.9494 7.78019 23.3656 7.79086 23.7765C7.7962 24.0913 7.99363 24.3261 8.29244 24.3901C8.81002 24.5129 9.19954 24.2087 9.19954 23.6805C9.20487 22.2985 9.20487 20.9111 9.20487 19.5291C9.20487 19.4171 9.21021 19.305 9.22622 19.193C9.25823 18.9315 9.39163 18.7288 9.6104 18.59C9.94122 18.3766 10.2881 18.3606 10.6349 18.5367C10.9764 18.7074 11.1258 19.0062 11.1258 19.3851C11.1258 20.7671 11.1311 22.1544 11.1365 23.5364C11.1365 23.6378 11.1365 23.7338 11.1471 23.8352C11.1791 24.134 11.3872 24.3474 11.6807 24.3955C12.2036 24.4862 12.5505 24.1927 12.5505 23.6591C12.5505 20.7564 12.5505 17.8537 12.5505 14.951C12.5505 14.0385 13.1854 13.4036 14.0925 13.4036C14.7649 13.4036 15.4372 13.4036 16.1095 13.4036C16.2429 13.4036 16.3763 13.3929 16.5044 13.3609C16.8352 13.2755 17.054 12.998 17.054 12.6619C17.0593 12.331 16.8619 12.0643 16.5417 11.9575C16.387 11.9042 16.2269 11.9042 16.0668 11.9042C13.751 11.9042 11.4353 11.9042 9.1195 11.9042C8.90073 11.9042 8.68196 11.9095 8.46319 11.9309C7.16657 12.0589 5.82726 12.8966 5.84327 14.7482C5.85394 15.9594 5.84327 17.1707 5.8486 18.3819C5.8486 18.4833 5.85394 18.5794 5.87528 18.6807C5.92331 18.9369 6.07805 19.0969 6.3235 19.161C6.8144 19.2944 7.20392 19.0009 7.20392 18.4833C7.20925 17.2454 7.20392 16.0075 7.20392 14.7695C7.20392 14.4067 7.20392 14.4174 7.57209 14.4014C7.75885 14.396 7.78553 14.4601 7.78553 14.6255C7.78553 16.1462 7.78553 17.6563 7.78553 19.1663Z" fill="#F79F1A" stroke="#EE7D31" stroke-width="0.2"/>
<path d="M13.0093 8.03573C13.0147 9.60447 11.7447 10.8797 10.1706 10.8851C8.61256 10.8904 7.33195 9.61515 7.32661 8.05707C7.31594 6.49366 8.59122 5.20237 10.1546 5.19704C11.7234 5.1917 13.004 6.46164 13.0093 8.03573ZM7.90289 8.04106C7.90289 9.30033 8.9167 10.3088 10.176 10.3035C11.4299 10.2981 12.4384 9.28432 12.433 8.02505C12.4277 6.77646 11.4192 5.77331 10.1706 5.76798C8.9167 5.77331 7.89755 6.78713 7.90289 8.04106Z" fill="#F79F1A" stroke="#EE7D31" stroke-width="0.2"/>
</svg>
