<svg width="30" height="30" viewBox="0 0 30 30" fill="none" xmlns="http://www.w3.org/2000/svg">
<rect opacity="0.14" width="30" height="30" rx="3.17073" fill="#27C9DF"/>
<path d="M15.851 8.57946C15.8565 8.80427 15.8126 9.01811 15.7194 9.22098C15.6756 9.3142 15.6975 9.36354 15.7743 9.42386C16.3993 9.91185 17.0244 10.3998 17.644 10.8988C17.7317 10.9701 17.7866 10.9536 17.8743 10.8933C18.2965 10.5972 18.7571 10.5095 19.256 10.6576C19.3712 10.6905 19.426 10.6685 19.4863 10.5698C20.0511 9.69253 20.6213 8.81524 21.1916 7.93794C21.2519 7.84473 21.2409 7.79538 21.1751 7.71314C20.709 7.14838 20.6432 6.42461 20.9996 5.82147C21.3341 5.24026 22.0195 4.91128 22.6501 5.02094C23.3793 5.14705 23.8947 5.64601 24.0373 6.37526C24.2566 7.52123 23.16 8.5356 22.0195 8.22855C21.8715 8.19016 21.8057 8.21758 21.7289 8.34369C21.1806 9.19905 20.6268 10.0544 20.0675 10.9098C19.9962 11.0194 19.9962 11.0852 20.0785 11.1894C20.5446 11.7542 20.5829 12.5328 20.1827 13.1359C19.7934 13.7226 19.0641 13.9968 18.3842 13.8103C17.6824 13.6184 17.1999 13.0098 17.1725 12.2805C17.1615 12.0503 17.1999 11.8309 17.2931 11.6226C17.3369 11.5294 17.315 11.48 17.2383 11.4197C16.6077 10.9207 15.9881 10.4273 15.3685 9.93379C15.2918 9.87347 15.2424 9.86799 15.1602 9.9283C14.5296 10.3615 13.8881 10.3615 13.252 9.9283C13.1643 9.86799 13.115 9.88444 13.0437 9.93927C12.4296 10.4273 11.8155 10.9207 11.1904 11.3978C11.0807 11.4855 11.1027 11.5513 11.1356 11.6555C11.5358 12.7631 10.7134 13.9035 9.54548 13.8652C8.8601 13.8432 8.25696 13.3826 8.0486 12.7192C7.84024 12.0612 8.06505 11.3375 8.61336 10.9207C9.16715 10.4985 9.91833 10.4602 10.4941 10.8495C10.6421 10.9482 10.7243 10.9427 10.8559 10.8385C11.4262 10.3779 12.0019 9.9283 12.5776 9.47869C12.7037 9.37999 12.7366 9.30871 12.6763 9.14422C12.4406 8.48077 12.5831 7.87763 13.0876 7.4006C13.5975 6.91809 14.2061 6.80843 14.8531 7.08258C15.5001 7.36222 15.8126 7.88311 15.851 8.57946ZM14.1951 7.63089C13.6633 7.63089 13.2191 8.07502 13.2191 8.61236C13.2191 9.16067 13.6633 9.6048 14.2061 9.59932C14.7434 9.59932 15.1821 9.15519 15.1821 8.61785C15.1876 8.07502 14.7434 7.63089 14.1951 7.63089ZM9.60031 11.2442C9.06845 11.2442 8.62432 11.6884 8.62432 12.2257C8.62432 12.774 9.06845 13.2182 9.61128 13.2127C10.1486 13.2072 10.5873 12.7685 10.5873 12.2312C10.5928 11.6884 10.1486 11.2442 9.60031 11.2442ZM19.7824 12.2257C19.7824 11.6829 19.3328 11.2388 18.7845 11.2442C18.2526 11.2497 17.8085 11.6939 17.814 12.2312C17.8195 12.7685 18.2526 13.2072 18.79 13.2127C19.3383 13.2127 19.7824 12.7685 19.7824 12.2257ZM22.4033 5.66246C21.8715 5.66246 21.4273 6.10659 21.4273 6.64393C21.4273 7.19224 21.8715 7.63637 22.4198 7.63089C22.9571 7.62541 23.3958 7.18676 23.3958 6.64942C23.3958 6.10111 22.9516 5.66246 22.4033 5.66246Z" fill="#27C9DF"/>
<path d="M19.6618 24.0473C18.4555 24.0473 17.2547 24.0473 16.0484 24.0473C15.9881 24.0473 15.9223 24.0527 15.862 24.0418C15.6865 24.0089 15.5769 23.8992 15.5769 23.7183C15.5769 23.5373 15.6811 23.4277 15.8565 23.3948C15.9223 23.3838 15.9936 23.3893 16.0594 23.3893C18.4281 23.3893 20.7913 23.3893 23.16 23.3948C23.3519 23.3948 23.4067 23.3454 23.3903 23.159C23.3738 22.9506 23.3848 22.7368 23.3903 22.523C23.3903 22.4352 23.3629 22.3968 23.2751 22.4023C23.2258 22.4078 23.1819 22.4023 23.1326 22.4023C21.1696 22.4023 19.2067 22.4023 17.2437 22.4023C17.1779 22.4023 17.1067 22.4078 17.0409 22.3968C16.8599 22.3749 16.7393 22.2324 16.7448 22.0624C16.7557 21.8814 16.8599 21.7773 17.0354 21.7498C17.1012 21.7389 17.1725 21.7444 17.2383 21.7444C19.2177 21.7444 21.1916 21.7444 23.171 21.7498C23.3519 21.7498 23.4122 21.7115 23.3958 21.525C23.3793 21.3496 23.3793 21.1686 23.3958 20.9932C23.4122 20.8122 23.3574 20.7519 23.1655 20.7574C21.3232 20.7684 19.4863 20.7629 17.644 20.7629C17.5782 20.7629 17.5069 20.7684 17.4411 20.7574C17.2657 20.7245 17.156 20.6148 17.156 20.4339C17.156 20.253 17.2657 20.1433 17.4411 20.1104C17.5069 20.0994 17.5782 20.1049 17.644 20.1049C19.0477 20.1049 20.4459 20.0994 21.8495 20.1104C22.0469 20.1104 22.0908 20.0501 22.0798 19.8691C22.0634 19.6772 22.0689 19.4853 22.0798 19.2934C22.0908 19.1454 22.0414 19.1125 21.8989 19.1125C20.4239 19.118 18.9435 19.118 17.4685 19.118C17.4027 19.118 17.3315 19.1234 17.2657 19.1125C17.0902 19.0796 16.986 18.9699 16.986 18.789C16.986 18.6026 17.0957 18.4984 17.2712 18.471C17.337 18.46 17.4082 18.4655 17.474 18.4655C19.3438 18.4655 21.208 18.4655 23.0777 18.4655C23.3958 18.4655 23.3958 18.4655 23.3958 18.1365C23.3958 17.9665 23.3903 17.7965 23.3958 17.6211C23.4012 17.5005 23.3574 17.473 23.2422 17.473C22.7707 17.4785 22.2991 17.473 21.8276 17.473C20.1114 17.473 18.3952 17.473 16.679 17.473C16.6187 17.473 16.5529 17.4785 16.4926 17.473C16.3006 17.4566 16.1691 17.3195 16.1691 17.1386C16.1745 16.9686 16.3006 16.837 16.4816 16.8206C16.5364 16.8151 16.5913 16.8206 16.6461 16.8206C18.8558 16.8206 21.0654 16.8206 23.2751 16.8206C23.8015 16.8206 24.0482 17.0673 24.0482 17.6046C24.0482 17.8843 24.0537 18.1639 24.0482 18.4435C24.0428 18.8383 23.7686 19.1125 23.3738 19.118C23.2039 19.1234 23.0339 19.1234 22.8584 19.118C22.7597 19.1125 22.7268 19.1509 22.7323 19.2496C22.7378 19.4908 22.7378 19.7266 22.7323 19.9678C22.7268 20.072 22.7597 20.1159 22.8694 20.1104C23.0394 20.1049 23.2093 20.1049 23.3848 20.1104C23.7686 20.1214 24.0537 20.39 24.0428 20.7739C24.0318 21.2015 24.114 21.6292 23.9825 22.0569C23.9441 22.172 24.0592 22.3091 24.0537 22.4517C24.0482 22.7532 24.0537 23.0548 24.0482 23.3564C24.0428 23.7786 23.7741 24.0473 23.3519 24.0473C22.1237 24.0473 20.8955 24.0473 19.6618 24.0473Z" fill="#27C9DF"/>
<path d="M12.5667 16.1681C14.7215 16.1626 16.498 17.9337 16.5035 20.0885C16.5035 22.2598 14.7489 24.0363 12.5996 24.0473C10.3899 24.0528 8.62432 22.2982 8.62432 20.083C8.61884 17.9337 10.3954 16.1736 12.5667 16.1681ZM12.5776 23.3893C14.3706 23.3893 15.8455 21.9144 15.8455 20.1214C15.8455 18.3065 14.387 16.8261 12.5886 16.8206C10.7518 16.8151 9.28229 18.2791 9.27681 20.105C9.27681 21.9199 10.7518 23.3893 12.5776 23.3893Z" fill="#27C9DF"/>
<path d="M5 17.8404C5.07128 16.4915 5.78408 15.2578 7.27 14.567C8.72302 13.8871 10.1157 14.0844 11.3988 15.044C11.5029 15.1207 11.5852 15.203 11.5852 15.3456C11.5907 15.4826 11.5304 15.5868 11.4097 15.6471C11.2726 15.7129 11.1465 15.6855 11.0259 15.5923C10.6476 15.2907 10.2254 15.0769 9.75383 14.9563C8.08149 14.5286 6.34336 15.5046 5.82795 17.1605C5.31254 18.8218 6.17886 20.6093 7.79089 21.2125C7.84572 21.2344 7.90604 21.2454 7.96635 21.2618C8.16374 21.3166 8.2734 21.4811 8.22405 21.6621C8.17471 21.854 7.99925 21.9582 7.79637 21.8924C6.93553 21.6292 6.23918 21.1302 5.72377 20.401C5.24126 19.7156 5 18.9534 5 17.8404Z" fill="#27C9DF"/>
<path d="M8.96426 15.5101C9.26583 15.5101 9.56192 15.565 9.84704 15.6691C10.1047 15.7624 10.2034 15.9323 10.1322 16.1297C10.0609 16.3161 9.87994 16.371 9.62772 16.2887C8.40499 15.8775 7.18774 16.6013 7.00132 17.8733C6.89166 18.6245 7.17678 19.2386 7.76895 19.7102C7.88958 19.8034 7.98279 19.9021 7.96086 20.0666C7.92796 20.3243 7.64284 20.4285 7.41255 20.2585C6.85328 19.8527 6.50236 19.2989 6.37076 18.6245C6.06371 16.996 7.30289 15.5156 8.96426 15.5101Z" fill="#27C9DF"/>
<path d="M12.5776 17.4785C14.0087 17.484 15.1876 18.6629 15.1876 20.0939C15.1876 21.5524 14.0087 22.7313 12.5557 22.7313C11.1027 22.7258 9.9293 21.5415 9.93478 20.083C9.94026 18.6464 11.1246 17.4785 12.5776 17.4785ZM12.5667 22.0788C13.6633 22.0733 14.5406 21.1851 14.5351 20.083C14.5296 19.0138 13.6359 18.1365 12.5612 18.1365C11.4755 18.142 10.5928 19.0247 10.5928 20.1104C10.5928 21.196 11.481 22.0788 12.5667 22.0788Z" fill="#27C9DF"/>
<path d="M12.298 20.7629C12.4351 20.7629 12.5722 20.7629 12.7092 20.7629C12.8134 20.7629 12.8792 20.708 12.8847 20.6039C12.8847 20.4997 12.8244 20.4394 12.7147 20.4394C12.5776 20.4339 12.4406 20.4394 12.3035 20.4394C11.8977 20.4339 11.5633 20.1488 11.4975 19.754C11.4317 19.3537 11.662 18.9644 12.0513 18.8383C12.15 18.8054 12.2322 18.789 12.2706 18.6629C12.3035 18.5313 12.4241 18.4709 12.5557 18.4709C12.6873 18.4709 12.8079 18.5258 12.8463 18.6574C12.8847 18.7999 12.9779 18.8054 13.0876 18.7999C13.115 18.7999 13.1424 18.7999 13.1698 18.7999C13.3946 18.8054 13.5372 18.9315 13.5427 19.1234C13.5427 19.3153 13.4001 19.4524 13.1808 19.4524C12.9505 19.4579 12.7147 19.4579 12.4844 19.4524C12.3583 19.4524 12.2377 19.4634 12.2377 19.6224C12.2432 19.7704 12.3583 19.7814 12.4735 19.7814C12.5886 19.7759 12.7037 19.7759 12.8244 19.7814C13.2246 19.7869 13.5591 20.083 13.6194 20.4723C13.6797 20.8561 13.4604 21.2399 13.093 21.3715C12.9724 21.4154 12.8792 21.4428 12.8353 21.5853C12.797 21.7005 12.6763 21.7553 12.5502 21.7498C12.4241 21.7443 12.309 21.6895 12.2761 21.5744C12.2322 21.4263 12.139 21.4154 12.0184 21.4263C11.9855 21.4318 11.9526 21.4263 11.9142 21.4263C11.7058 21.4154 11.5687 21.2783 11.5742 21.0919C11.5797 20.9109 11.7113 20.7793 11.9087 20.7738C12.0403 20.7574 12.1719 20.7629 12.298 20.7629Z" fill="#27C9DF"/>
</svg>
