<svg width="18" height="17" viewBox="0 0 18 17" fill="none" xmlns="http://www.w3.org/2000/svg">
<path d="M0 13.5924C0.0375678 13.4233 0.0657436 13.2496 0.112703 13.0805C0.497773 11.6717 1.8643 10.7138 3.32005 10.8218C4.79459 10.9345 5.98267 12.0662 6.15642 13.5266C6.35834 15.2219 5.19844 16.7293 3.50789 16.9735C3.47502 16.9782 3.44215 16.9923 3.40927 17.0064C3.19796 17.0064 2.98664 17.0064 2.77532 17.0064C2.74245 16.997 2.70957 16.9829 2.6767 16.9735C1.3947 16.7528 0.540036 16.0249 0.131487 14.7805C0.0704395 14.5973 0.0422637 14.4095 0 14.2216C0 14.0103 0 13.799 0 13.5924ZM3.3764 13.2261C3.3764 13.151 3.37171 13.0711 3.3764 12.996C3.3811 12.9396 3.33414 12.8457 3.40927 12.8269C3.47971 12.8082 3.55485 12.8692 3.60181 12.9303C3.62998 12.9631 3.64407 13.0148 3.65346 13.057C3.70042 13.2637 3.82252 13.3717 3.98218 13.3388C4.15124 13.3059 4.24516 13.1463 4.20759 12.9443C4.13245 12.5687 3.87887 12.362 3.52667 12.2681C3.43745 12.2446 3.37171 12.2259 3.34823 12.1179C3.32005 12.0005 3.21674 11.9394 3.09464 11.9441C2.98194 11.9441 2.87393 11.9958 2.85045 12.1085C2.82228 12.2446 2.73305 12.2587 2.63444 12.2916C2.24467 12.4278 2.01457 12.7142 1.977 13.1228C1.93944 13.5313 2.0991 13.9023 2.47947 14.0432C2.81758 14.1653 2.84576 14.3578 2.81289 14.6349C2.80349 14.7006 2.81758 14.7617 2.81289 14.8274C2.80819 14.8838 2.84576 14.9636 2.78941 14.9871C2.72366 15.0153 2.65792 14.9542 2.60626 14.9073C2.564 14.8744 2.54522 14.8227 2.53582 14.7711C2.48417 14.5504 2.36677 14.4471 2.19771 14.4799C2.02396 14.5175 1.93944 14.6819 1.9864 14.8979C2.07092 15.2735 2.3292 15.4708 2.6814 15.56C2.76593 15.5788 2.80819 15.6023 2.83167 15.6915C2.86454 15.8089 2.95846 15.8746 3.08056 15.8793C3.20265 15.884 3.31535 15.8324 3.33883 15.715C3.36701 15.5788 3.45623 15.5647 3.55485 15.5318C3.93053 15.405 4.1982 15.0528 4.21228 14.6631C4.23107 14.278 4.01505 13.8741 3.64877 13.7567C3.3764 13.6675 3.33883 13.5219 3.37171 13.2918C3.3764 13.2637 3.3764 13.2449 3.3764 13.2261Z" fill="white"/>
<path d="M5.06226 17.0016C5.46611 16.7058 5.83709 16.3817 6.11885 15.9591C6.28321 15.7102 6.42878 15.4472 6.5227 15.1655C6.55557 15.0669 6.59784 15.0293 6.70585 15.0293C10.3593 15.034 14.0081 15.034 17.6615 15.034C17.8916 15.034 17.995 15.1373 17.995 15.3674C17.9997 15.776 17.9903 16.1892 17.9997 16.5978C18.0043 16.7715 17.9621 16.903 17.8212 17.0063C13.5667 17.0016 9.3168 17.0016 5.06226 17.0016Z" fill="white"/>
<path d="M13.4962 8.79313C13.4962 6.98518 13.4962 5.17254 13.4962 3.36459C13.4962 3.0077 13.5667 2.93726 13.9329 2.93726C14.5998 2.93726 15.2666 2.93726 15.9334 2.93726C16.2199 2.93726 16.3091 3.03118 16.3091 3.31763C16.3091 6.97579 16.3091 10.6386 16.3138 14.2968C16.3138 14.4377 16.2762 14.4706 16.14 14.4706C15.3276 14.4659 14.5105 14.4612 13.6981 14.4706C13.5432 14.4706 13.4962 14.4377 13.4962 14.2733C13.5009 12.4466 13.4962 10.6199 13.4962 8.79313Z" fill="white"/>
<path d="M9.56097 9.63853C9.56097 8.10295 9.56097 6.57206 9.56097 5.03648C9.56097 4.71246 9.6408 4.62793 9.96013 4.62793C10.6317 4.62793 11.3079 4.62793 11.9794 4.62793C12.2799 4.62793 12.3692 4.71715 12.3692 5.0083C12.3692 8.10764 12.3692 11.2023 12.3739 14.3016C12.3739 14.4425 12.3316 14.4754 12.2001 14.4707C11.3783 14.466 10.5612 14.466 9.73942 14.4707C9.59384 14.4707 9.55627 14.4378 9.55627 14.2922C9.56567 12.7426 9.56097 11.1882 9.56097 9.63853Z" fill="white"/>
<path d="M8.43397 10.4929C8.43397 11.7562 8.42927 13.0241 8.43866 14.2873C8.43866 14.4329 8.40579 14.4751 8.25552 14.4704C7.78592 14.461 7.31633 14.461 6.85142 14.4704C6.72933 14.4704 6.71055 14.4329 6.71994 14.3202C6.83734 13.179 6.49923 12.1929 5.715 11.3617C5.64926 11.2913 5.62108 11.2255 5.62578 11.1316C5.63047 9.64298 5.62578 8.15435 5.62578 6.66573C5.62578 6.41215 5.72439 6.31353 5.97328 6.30884C6.67767 6.30884 7.37737 6.30884 8.08177 6.30884C8.34005 6.30884 8.43866 6.40745 8.43866 6.67512C8.43866 7.95243 8.43397 9.22034 8.43397 10.4929Z" fill="white"/>
<path d="M14.2241 0.565604C13.6465 0.565604 13.1253 0.565604 12.604 0.565604C12.5477 0.565604 12.4866 0.565604 12.4303 0.565604C12.2236 0.560908 12.0968 0.457596 12.0921 0.288541C12.0875 0.119486 12.2142 0.00678307 12.4209 0.0020871C12.6134 -0.00260887 12.8059 0.0020871 12.9985 0.0020871C13.6089 0.0020871 14.2147 0.0020871 14.8252 0.0020871C15.0741 0.0020871 15.1821 0.105398 15.1821 0.349589C15.1821 1.1526 15.1821 1.95561 15.1821 2.75862C15.1821 2.96524 15.0741 3.09204 14.905 3.09204C14.736 3.09204 14.6233 2.96994 14.6233 2.76332C14.6233 2.17632 14.6233 1.59402 14.6233 0.992937C14.5434 1.01172 14.5106 1.06807 14.4636 1.11034C12.7073 2.74453 10.8148 4.19089 8.69227 5.32262C7.34922 6.03641 5.94512 6.59523 4.44241 6.87229C4.01038 6.95212 3.57366 7.00848 3.13693 7.02726C2.9444 7.03665 2.81761 6.92395 2.81291 6.75959C2.80821 6.59523 2.92561 6.47783 3.11815 6.46844C4.53164 6.38391 5.86529 5.99415 7.15668 5.42593C9.03507 4.60414 10.7256 3.47711 12.3269 2.2045C12.9233 1.7302 13.4962 1.23243 14.0551 0.711179C14.0973 0.678307 14.1396 0.640739 14.2241 0.565604Z" fill="white"/>
<path d="M4.49874 10.5305C3.55015 10.1596 2.62505 10.1643 1.68585 10.5305C1.68585 10.2488 1.68585 9.98581 1.68585 9.72753C1.68585 9.17811 1.68585 8.62868 1.68585 8.07925C1.68585 7.82567 1.78447 7.72705 2.03335 7.72705C2.74245 7.72705 3.44684 7.72705 4.15593 7.72705C4.37195 7.72705 4.49404 7.82567 4.49404 8.0182C4.50343 8.84469 4.49874 9.67118 4.49874 10.5305Z" fill="white"/>
<path d="M2.8129 13.5736C2.49357 13.4374 2.44191 13.0758 2.6861 12.8927C2.71898 12.8692 2.75185 12.8316 2.79411 12.8551C2.82698 12.8739 2.8129 12.9161 2.8129 12.949C2.8129 13.1509 2.8129 13.3529 2.8129 13.5736Z" fill="white"/>
<path d="M3.3811 14.9777C3.3811 14.7288 3.3811 14.4893 3.3811 14.2451C3.55485 14.3015 3.62999 14.4189 3.65347 14.5785C3.67225 14.7476 3.58303 14.8838 3.3811 14.9777Z" fill="white"/>
</svg>
