<svg width="16" height="16" viewBox="0 0 16 16" fill="none" xmlns="http://www.w3.org/2000/svg">
<path d="M1.50276 16.0022C1.29404 15.9396 1.08115 15.8978 0.88913 15.7851C0.304725 15.4345 0.00417432 14.9211 0.00417432 14.2406C0 12.2411 0 10.2416 0 8.24214C0 6.9314 0 5.62067 0 4.30575C0.00417432 3.47924 0.534313 2.803 1.32743 2.61098C1.46936 2.57759 1.61546 2.56506 1.76156 2.56506C4.0157 2.56506 6.26983 2.56506 8.52396 2.56506C8.84539 2.56506 9.05828 2.74873 9.05828 3.02841C9.06245 3.31227 8.84539 3.50429 8.51979 3.50429C6.28653 3.50429 4.05327 3.50429 1.82 3.50429C1.24395 3.50429 0.935048 3.81319 0.935048 4.39342C0.935048 7.65773 0.935048 10.9221 0.935048 14.1864C0.935048 14.7541 1.24812 15.063 1.81166 15.063C5.08015 15.063 8.35282 15.063 11.6213 15.063C12.1765 15.063 12.4937 14.7499 12.4937 14.1947C12.4937 11.9698 12.4937 9.74907 12.4937 7.52416C12.4937 7.45737 12.4896 7.3864 12.5021 7.32379C12.548 7.08585 12.7651 6.92305 12.9988 6.93975C13.2368 6.96062 13.4204 7.15264 13.4288 7.39475C13.433 7.55755 13.4288 7.71617 13.4288 7.87897C13.4288 9.98283 13.4204 12.0867 13.433 14.1905C13.4413 15.2133 12.6941 15.8895 11.9678 15.9772C11.9553 15.9772 11.9427 15.9897 11.926 15.998C8.45717 16.0022 4.97996 16.0022 1.50276 16.0022Z" fill="#007AD0"/>
<path d="M15.9998 2.16022C15.9205 2.49834 15.6993 2.74045 15.4613 2.97838C13.2114 5.21999 10.9656 7.46578 8.71979 9.71574C8.57786 9.85766 8.42342 9.9495 8.22722 9.98289C7.54681 10.1081 6.87057 10.2542 6.19015 10.3836C5.81447 10.4588 5.54313 10.1874 5.6141 9.81175C5.75185 9.10211 5.89378 8.39248 6.0357 7.68702C6.06075 7.55344 6.12336 7.44908 6.21937 7.35307C8.55282 5.0238 10.8821 2.69036 13.2114 0.361085C13.6956 -0.123136 14.3468 -0.118961 14.8352 0.36526C15.0481 0.57815 15.2568 0.799389 15.478 1.00393C15.7201 1.23352 15.9247 1.4798 15.9998 1.81792C15.9998 1.93063 15.9998 2.04751 15.9998 2.16022ZM6.68272 9.24404C6.67855 9.36927 6.77038 9.315 6.82048 9.30665C7.19199 9.23569 7.56351 9.16055 7.93502 9.08541C8.00598 9.07289 8.0686 9.04367 8.12286 8.98523C9.98461 7.12348 11.8464 5.25756 13.7081 3.39999C13.7916 3.3165 13.7749 3.27476 13.6998 3.2038C13.395 2.90742 13.0903 2.60687 12.7939 2.29797C12.7104 2.21448 12.6687 2.21448 12.5852 2.29797C10.7276 4.15972 8.87007 6.01729 7.0125 7.87486C6.9791 7.90826 6.94153 7.9333 6.92901 7.98339C6.85387 8.40917 6.76621 8.82661 6.68272 9.24404ZM14.0212 0.94549C13.9753 0.941316 13.9377 0.962188 13.9085 0.991408C13.7415 1.15421 13.5787 1.32535 13.4117 1.48815C13.3533 1.54659 13.3909 1.57581 13.4284 1.61338C13.7498 1.9348 14.0713 2.25205 14.3885 2.57348C14.4428 2.62774 14.4762 2.64026 14.5388 2.57765C14.6849 2.4232 14.8393 2.27292 14.9896 2.12265C15.0856 2.02664 15.0815 1.9348 14.9854 1.83879C14.7099 1.56329 14.4344 1.28778 14.1589 1.01228C14.1214 0.974711 14.0796 0.941316 14.0212 0.94549Z" fill="#007AD0"/>
</svg>
