<svg width="69" height="69" viewBox="0 0 69 69" fill="none" xmlns="http://www.w3.org/2000/svg">
<circle cx="34.5" cy="34.5" r="34.5" fill="#005997"/>
<path d="M56.9999 45.3796C56.954 45.6325 56.9195 45.8854 56.8505 46.1268C56.4942 47.5061 55.3448 48.4601 53.9195 48.4831C51.8505 48.5176 49.7931 48.4946 47.7241 48.4946C43.4482 48.4946 39.1839 48.4946 34.908 48.4831C34.5747 48.4831 34.3448 48.5865 34.1149 48.8049C32.7241 50.1727 31.3103 51.5176 29.9195 52.8739C29.6781 53.1038 29.4367 53.2992 29.0919 53.1612C28.7471 53.0118 28.7126 52.69 28.7241 52.3681C28.7241 51.2302 28.7126 50.1038 28.7356 48.9658C28.7471 48.598 28.6666 48.4601 28.2643 48.4831C27.5172 48.5176 26.7701 48.5061 26.0229 48.4716C24.4482 48.4026 23.1149 47.1038 23.0919 45.5291C23.0574 43.2877 23.0574 41.0578 23.0919 38.8164C23.1149 37.2532 24.4712 35.9543 26.0344 35.8854C26.1494 35.8854 26.2643 35.8854 26.3793 35.8854C35.4712 35.8854 44.5632 35.8854 53.6436 35.8854C55.2758 35.8854 56.5057 36.8279 56.862 38.3222C56.9195 38.5405 56.9425 38.7704 56.9885 38.9888C57 41.1382 56.9999 43.2532 56.9999 45.3796ZM29.9195 51.1957C30.1034 51.0348 30.1953 50.9543 30.2873 50.8624C31.3448 49.8394 32.4252 48.8164 33.4597 47.7704C33.8045 47.4256 34.1494 47.2877 34.6321 47.2877C40.954 47.2992 47.2758 47.2992 53.5977 47.2992C54.9655 47.2992 55.7356 46.5291 55.7471 45.1842C55.7586 43.1957 55.7586 41.1957 55.7471 39.2072C55.7356 37.9199 54.9655 37.1153 53.7011 37.1153C44.5747 37.1153 35.4367 37.1153 26.3103 37.1153C25.0804 37.1153 24.2873 37.9084 24.2873 39.1268C24.2758 41.1727 24.2758 43.2302 24.2873 45.2762C24.2873 46.5061 25.0804 47.2762 26.3103 47.2992C27.2298 47.3107 28.1494 47.2992 29.0574 47.2992C29.7471 47.2992 29.9195 47.4716 29.9195 48.1612C29.931 49.1382 29.9195 50.1038 29.9195 51.1957Z" fill="white" stroke="white"/>
<path d="M31.0691 55.9083C28.0576 55.9083 25.0461 55.9083 22.0346 55.9083C18.9311 55.9083 16.7357 53.7014 16.7357 50.5865C16.7357 46.0578 16.7357 41.529 16.7357 37.0003C16.7357 33.9198 18.8851 31.7359 21.9541 31.7014C22.3104 31.7014 22.4139 31.598 22.4024 31.2417C22.3794 29.6555 22.3794 28.0578 22.4024 26.4716C22.4943 21.4716 27.0231 17.5175 32.0001 18.0922C36.4943 18.6095 39.7702 22.2647 39.7817 26.7934C39.7932 28.2647 39.7932 29.7474 39.7702 31.2187C39.7702 31.5865 39.8392 31.7014 40.2415 31.7014C42.1955 31.6899 43.6782 32.5405 44.7127 34.1842C44.7817 34.2876 44.8507 34.4026 44.8966 34.529C45.0346 34.8509 44.9541 35.1267 44.6438 35.2991C44.3334 35.4716 44.0576 35.3796 43.8507 35.1037C43.7702 34.9888 43.7127 34.8509 43.6323 34.7359C42.8851 33.5865 41.8392 32.9198 40.4599 32.9083C34.2185 32.8853 27.9886 32.8853 21.7472 32.9083C19.6323 32.9198 17.9541 34.6095 17.9426 36.7244C17.9196 41.4371 17.9196 46.1612 17.9426 50.8739C17.9541 52.9428 19.5518 54.575 21.6208 54.7014C21.7932 54.7129 21.9656 54.7244 22.138 54.7244C28.1035 54.7244 34.0691 54.7129 40.0346 54.7244C41.6208 54.7244 42.8737 54.1497 43.7127 52.7589C44.092 52.1267 44.23 51.4256 44.2415 50.7014C44.2415 50.3451 44.2415 49.9888 44.253 49.621C44.2645 49.2647 44.4714 49.0463 44.8047 49.0233C45.1495 49.0003 45.3679 49.2072 45.4254 49.552C46.0576 52.9083 43.5978 55.8968 40.184 55.8968C37.1495 55.9083 34.1035 55.9083 31.0691 55.9083ZM23.5978 28.506C23.5978 29.5635 23.6093 30.4371 23.5863 31.3106C23.5748 31.6095 23.6668 31.7014 23.9656 31.7014C24.8851 31.6785 25.8047 31.6785 26.7127 31.7014C27.0346 31.7129 27.1265 31.6095 27.1265 31.2876C27.115 29.7244 27.1035 28.1612 27.1265 26.598C27.161 24.506 28.8966 22.8049 31.0001 22.7589C33.161 22.7129 34.9886 24.4371 35.0346 26.6095C35.0691 28.1727 35.0576 29.7359 35.0346 31.2991C35.0346 31.6325 35.1265 31.7129 35.4484 31.7014C36.138 31.6785 36.8277 31.6899 37.5173 31.6899C38.5748 31.6899 38.5978 31.6899 38.5748 30.621C38.5518 29.0003 38.6897 27.3796 38.4943 25.7704C38.0691 22.1842 35.0231 19.3911 31.4369 19.2417C27.7817 19.0808 24.5518 21.5635 23.7587 25.0922C23.5058 26.2762 23.6438 27.483 23.5978 28.506ZM31.0691 31.6899C31.8851 31.6899 32.7012 31.6785 33.5173 31.6899C33.7817 31.6899 33.8622 31.621 33.8622 31.3566C33.8507 29.7934 33.8736 28.2302 33.8507 26.667C33.8277 25.1957 32.5633 23.9658 31.1035 23.9658C29.6323 23.9658 28.3679 25.1727 28.3449 26.6555C28.3219 28.2187 28.3449 29.7819 28.3334 31.3451C28.3334 31.644 28.4369 31.7014 28.7127 31.7014C29.4943 31.6785 30.2759 31.6899 31.0691 31.6899Z" fill="white" stroke="white"/>
<path d="M30.4943 13.0003C39.4023 13.0233 46.6322 18.6554 48.6322 26.6784C48.7126 27.0233 48.8621 27.1037 49.1839 27.0922C50.1149 27.0692 51.046 27.0807 51.977 27.0807C52.2874 27.0807 52.5862 27.1152 52.7356 27.46C52.8736 27.7704 52.7126 28.0003 52.5172 28.2302C51.3678 29.5635 50.2299 30.9083 49.0805 32.2531C48.6207 32.7819 48.3218 32.7819 47.8621 32.2416C46.7241 30.9198 45.5862 29.5865 44.4483 28.2646C44.2414 28.0233 44.0805 27.7704 44.2184 27.4485C44.3678 27.1152 44.6667 27.0807 44.977 27.0922C45.6667 27.0922 46.3563 27.0807 47.046 27.1037C47.4023 27.1152 47.5172 27.0462 47.4138 26.6554C46.7471 24.2416 45.6207 22.0692 43.9885 20.1727C41.1724 16.8968 37.6092 14.9198 33.3333 14.3566C24.2759 13.1727 16.3908 19.1957 14.5862 27.4945C14.3678 28.506 14.2299 29.529 14.2184 30.5635C14.2184 30.7359 14.2069 30.9083 14.1954 31.0807C14.1724 31.4485 13.977 31.6669 13.5977 31.6899C13.2529 31.7129 13 31.437 13 31.0462C13 30.2761 13.023 29.4945 13.1494 28.7359C14.2874 21.7474 18.1264 16.8968 24.6552 14.1957C26.7126 13.3451 28.8966 12.9888 30.4943 13.0003ZM46.0805 28.3221C46.8736 29.2531 47.6092 30.1037 48.3333 30.9658C48.4943 31.1612 48.5632 31.0003 48.6552 30.8968C49.092 30.3911 49.5402 29.8853 49.9655 29.3681C50.2414 29.0347 50.5632 28.7359 50.8046 28.3221C49.2414 28.3221 47.7126 28.3221 46.0805 28.3221Z" fill="white" stroke="white" stroke-width="0.3"/>
<path d="M32.5634 41.1613C33.0346 40.8969 33.4254 40.667 33.8162 40.4486C34.276 40.1843 34.6323 40.2302 34.8277 40.5751C35.0231 40.9084 34.8737 41.2302 34.4139 41.5061C34.0576 41.713 33.7013 41.9199 33.3335 42.1268C33.3105 42.1383 33.2875 42.1613 33.2415 42.2073C33.5634 42.4946 33.9657 42.644 34.3105 42.8739C34.4369 42.9544 34.5864 43.0233 34.7013 43.1268C34.9312 43.3337 34.9657 43.6095 34.8048 43.8624C34.6208 44.1613 34.3335 44.2417 34.0231 44.0808C33.5519 43.8394 33.1036 43.5636 32.5634 43.2532C32.5634 43.7935 32.5634 44.2647 32.5634 44.7475C32.5634 45.2532 32.345 45.5176 31.9542 45.5061C31.5749 45.4946 31.368 45.2417 31.368 44.759C31.368 44.2877 31.368 43.8164 31.368 43.2647C30.8967 43.5406 30.4944 43.7705 30.0921 44.0004C29.6553 44.2417 29.3105 44.1958 29.1151 43.8739C28.9197 43.5406 29.0461 43.2302 29.4829 42.9659C29.8852 42.7245 30.2875 42.4946 30.7588 42.2187C30.276 41.9429 29.8622 41.7015 29.4484 41.4601C29.0346 41.2187 28.9197 40.9084 29.1151 40.5751C29.299 40.2532 29.6438 40.1958 30.0461 40.4141C30.4714 40.644 30.8852 40.8854 31.368 41.1613C31.368 40.621 31.368 40.1498 31.368 39.69C31.368 39.1843 31.5864 38.9199 31.9772 38.9314C32.368 38.9314 32.5634 39.1843 32.5634 39.713C32.5749 40.1498 32.5634 40.6095 32.5634 41.1613Z" fill="white" stroke="white" stroke-width="0.4"/>
<path d="M41.2298 42.2072C41.7126 42.4946 42.1379 42.7244 42.5517 42.9773C42.954 43.2187 43.0574 43.552 42.862 43.8739C42.6781 44.1727 42.3333 44.2302 41.954 44.0233C41.6206 43.8394 41.2758 43.644 40.954 43.4371C40.7241 43.2877 40.5976 43.2877 40.6206 43.621C40.6321 43.9888 40.6321 44.3681 40.6206 44.7359C40.6091 45.2302 40.3907 45.5061 39.9999 45.4946C39.6321 45.4831 39.4252 45.2302 39.4137 44.7474C39.4137 44.3796 39.4022 44.0003 39.4137 43.6325C39.4252 43.2762 39.3103 43.2762 39.0574 43.4486C38.7586 43.644 38.4367 43.8164 38.1264 43.9888C37.6896 44.2302 37.3448 44.1842 37.1494 43.8624C36.954 43.5405 37.0919 43.2072 37.5172 42.9543C37.9195 42.713 38.3218 42.4831 38.793 42.2072C38.3218 41.9313 37.908 41.69 37.4942 41.4486C37.0919 41.2072 36.9655 40.8854 37.1379 40.5635C37.3103 40.2417 37.6781 40.1727 38.0689 40.3911C38.4367 40.5865 38.793 40.8049 39.1494 41.0118C39.3333 41.1267 39.4022 41.0808 39.4022 40.8624C39.4022 40.4371 39.3907 40.0003 39.4022 39.575C39.4137 39.1497 39.6091 38.9198 39.9655 38.9084C40.3333 38.8969 40.5746 39.1382 40.5976 39.5635C40.6091 39.9773 40.6091 40.3911 40.5976 40.8049C40.5976 41.0463 40.6551 41.1267 40.885 40.9773C41.2298 40.7704 41.5746 40.575 41.931 40.3796C42.3333 40.1612 42.6781 40.2302 42.862 40.552C43.0344 40.8624 42.9195 41.1842 42.5402 41.4141C42.1494 41.6785 41.7241 41.9084 41.2298 42.2072Z" fill="white" stroke="white" stroke-width="0.4"/>
<path d="M49.2758 42.2071C49.7585 42.4829 50.1723 42.7243 50.5861 42.9772C50.9884 43.2185 51.1034 43.5519 50.8965 43.8622C50.7126 44.1611 50.3792 44.23 49.9999 44.0231C49.5746 43.7933 49.1608 43.5404 48.6551 43.253C48.6551 43.7933 48.6551 44.276 48.6551 44.7473C48.6551 45.253 48.4367 45.5174 48.0459 45.5059C47.6666 45.4944 47.4597 45.2415 47.4597 44.7588C47.4597 44.368 47.4482 43.9887 47.4597 43.5979C47.4712 43.299 47.3677 43.2875 47.1493 43.4254C46.839 43.6208 46.5057 43.8048 46.1838 43.9887C45.747 44.23 45.4022 44.1841 45.2068 43.8622C45.0114 43.5289 45.1263 43.2185 45.5746 42.9542C45.908 42.7588 46.2413 42.5634 46.5746 42.3795C46.793 42.2645 46.8275 42.1726 46.5861 42.0461C46.2183 41.8507 45.862 41.6438 45.5057 41.4254C45.1263 41.1956 45.0229 40.8852 45.2068 40.5634C45.3792 40.253 45.724 40.1726 46.1034 40.3795C46.5401 40.6208 46.9654 40.8737 47.4597 41.1496C47.4597 40.6094 47.4597 40.1381 47.4597 39.6783C47.4597 39.1726 47.6666 38.9082 48.0689 38.9082C48.4597 38.9082 48.6551 39.1611 48.6666 39.6783C48.6666 40.1381 48.6666 40.5979 48.6666 41.1036C49.0689 40.9772 49.3562 40.7243 49.6896 40.5519C49.839 40.4714 49.9884 40.368 50.1378 40.299C50.4597 40.1611 50.747 40.2415 50.9079 40.5404C51.0804 40.8392 51.0114 41.1381 50.7125 41.3335C50.2758 41.6323 49.8045 41.8852 49.2758 42.2071Z" fill="white" stroke="white" stroke-width="0.4"/>
</svg>
