<svg width="25" height="25" viewBox="0 0 25 25" fill="none" xmlns="http://www.w3.org/2000/svg">
<path d="M1.95382 0C4.63887 0 7.32392 0 10.009 0C10.0518 0.0122326 10.1007 0.0305815 10.1435 0.042814C11.0671 0.256884 11.6848 0.813467 11.8683 1.74926C12.0212 2.53826 12.1069 3.33949 12.1925 4.14073C12.217 4.39761 12.3026 4.45266 12.5472 4.44654C15.9234 4.44043 19.2996 4.44043 22.6697 4.44043C23.4526 4.44043 24.0948 4.71566 24.5719 5.34564C24.8104 5.65757 24.9083 6.02455 25 6.39152C25 11.9451 25 17.4926 25 23.0462C24.9266 23.2786 24.896 23.5233 24.7859 23.7373C24.3456 24.5875 23.6361 24.9973 22.6942 24.9973C20.0764 25.0034 17.4525 24.9973 14.8347 24.9973C13.5381 24.9973 12.2475 25.0034 10.9509 24.9973C9.74597 24.9912 8.85911 24.2266 8.68785 23.034C8.58387 22.2939 8.48601 21.5538 8.41262 20.8076C8.38815 20.5874 8.31476 20.5507 8.11292 20.5507C6.1924 20.5569 4.27189 20.5569 2.35137 20.5569C1.97216 20.5569 1.60519 20.514 1.26267 20.3367C0.418626 19.9085 0.00883464 19.2052 0.00271835 18.2694C-0.00339794 16.8871 0.00271835 15.5048 0.00271835 14.1164C0.00271835 10.1836 0.00271835 6.25697 0.00271835 2.32419C-0.00339794 1.55354 0.271835 0.905211 0.901813 0.42814C1.21374 0.189605 1.58072 0.0917444 1.95382 0ZM11.1772 23.5355C11.3179 23.5355 11.3974 23.5355 11.483 23.5355C15.1956 23.5355 18.9021 23.5355 22.6146 23.5355C23.2874 23.5355 23.5382 23.2786 23.5382 22.6058C23.5382 17.3519 23.5382 12.0919 23.5382 6.83801C23.5382 6.16522 23.2813 5.90834 22.6146 5.90834C19.3302 5.90834 16.0396 5.90834 12.7552 5.90834C12.431 5.90834 12.431 5.90834 12.4616 6.22638C12.4616 6.24473 12.4677 6.25697 12.4677 6.27531C12.6757 7.90225 12.8775 9.5353 13.0855 11.1622C13.4341 13.9757 13.7827 16.7953 14.1375 19.6088C14.1742 19.9146 14.1069 20.1654 13.905 20.3917C13.5503 20.7954 13.2017 21.2052 12.8469 21.6089C12.2965 22.2388 11.7582 22.8688 11.1772 23.5355ZM1.46451 10.2815C1.46451 12.9115 1.46451 15.5415 1.46451 18.1654C1.46451 18.8382 1.7214 19.0889 2.39419 19.0889C5.58689 19.0889 8.77348 19.0889 11.9662 19.0889C12.168 19.0889 12.4371 19.1807 12.5472 19.0461C12.6329 18.9422 12.5289 18.6792 12.5044 18.4834C12.1558 15.6761 11.8133 12.8687 11.4585 10.0613C11.1344 7.46187 10.8102 4.86245 10.486 2.26914C10.4249 1.71256 10.1558 1.46791 9.59306 1.46791C7.18324 1.46791 4.77343 1.46791 2.36361 1.46791C1.72751 1.46791 1.46451 1.73091 1.46451 2.37312C1.46451 5.00924 1.46451 7.64536 1.46451 10.2815ZM10.0946 22.5508C10.6879 21.8657 11.2322 21.2296 11.8133 20.563C11.1711 20.563 10.5839 20.563 9.99674 20.563C9.89276 20.563 9.84995 20.5874 9.86218 20.7036C9.94169 21.2908 10.0151 21.8841 10.0946 22.5508Z" fill="#007AD0"/>
<path d="M16.4372 11.0337C16.7736 11.0337 17.1039 11.0276 17.4403 11.0337C17.5871 11.0398 17.6482 11.0031 17.636 10.8441C17.6238 10.6606 17.6299 10.471 17.636 10.2814C17.6543 9.86548 17.9785 9.55354 18.3761 9.56578C18.7675 9.57189 19.0733 9.87771 19.0917 10.2875C19.0978 10.4588 19.11 10.63 19.0917 10.8013C19.0672 11.0031 19.1528 11.0398 19.3363 11.0337C19.9602 11.0215 20.5902 11.0276 21.214 11.0276C21.6789 11.0276 22.003 11.315 22.0214 11.7309C22.0397 12.1469 21.7278 12.4649 21.2691 12.4832C21.1345 12.4894 21.0917 12.5444 21.055 12.6545C20.7186 13.7126 20.1926 14.6729 19.4953 15.5292C19.3852 15.6637 19.4036 15.731 19.532 15.835C20.0213 16.2264 20.5045 16.624 20.9877 17.0215C21.2262 17.2173 21.3363 17.468 21.2629 17.78C21.1896 18.0735 20.9938 18.257 20.7002 18.3243C20.4434 18.3855 20.2232 18.2876 20.0213 18.1286C19.5259 17.7188 19.0244 17.3212 18.5351 16.8992C18.3944 16.7769 18.3149 16.783 18.1742 16.8992C17.6727 17.3274 17.165 17.7494 16.6451 18.1531C16.1864 18.5139 15.5748 18.3182 15.4464 17.7738C15.373 17.4558 15.4953 17.205 15.7399 17.0032C16.2231 16.6056 16.7063 16.2081 17.1956 15.8166C17.3118 15.7249 17.3241 15.6637 17.2262 15.5475C16.5167 14.6729 15.9846 13.7004 15.6482 12.6239C15.6115 12.5138 15.5503 12.4832 15.4402 12.4771C14.9815 12.4527 14.6696 12.1346 14.6879 11.7187C14.7063 11.3089 15.0243 11.0215 15.4708 11.0153C15.8011 11.0337 16.1191 11.0337 16.4372 11.0337ZM18.3699 12.5016C18.0213 12.5016 17.6727 12.5016 17.3241 12.5016C17.2017 12.5016 17.165 12.5261 17.2201 12.6545C17.4831 13.3212 17.8378 13.9389 18.266 14.5139C18.3455 14.6178 18.3822 14.6117 18.4617 14.5139C18.8959 13.9389 19.2446 13.3212 19.5076 12.6545C19.5626 12.5261 19.5198 12.5016 19.3975 12.5016C19.055 12.5016 18.7125 12.5016 18.3699 12.5016Z" fill="#007AD0"/>
<path d="M6.65723 5.17432C6.8713 5.17432 7.07925 5.17432 7.29332 5.17432C7.75204 5.18043 8.02116 5.40062 8.11291 5.85322C8.44318 7.48016 8.76735 9.10097 9.09151 10.7279C9.24442 11.4924 9.39733 12.257 9.55023 13.0215C9.64198 13.4802 9.40956 13.8594 8.98753 13.9512C8.58386 14.0368 8.20465 13.7616 8.11291 13.3029C7.97223 12.6117 7.83156 11.9206 7.697 11.2233C7.66642 11.0704 7.61137 11.0276 7.45846 11.0337C6.91411 11.0398 6.36976 11.046 5.82541 11.0337C5.67251 11.0337 5.61746 11.0827 5.59299 11.2294C5.46455 11.9145 5.32388 12.5995 5.1832 13.2845C5.08534 13.7555 4.73671 14.0307 4.32692 13.9573C3.88655 13.8778 3.65413 13.4864 3.75199 12.9971C4.22294 10.6239 4.70001 8.25081 5.17709 5.87769C5.27495 5.3945 5.53183 5.18655 6.02725 5.18043C6.22909 5.17432 6.44316 5.17432 6.65723 5.17432ZM6.63888 9.57193C6.81625 9.57193 6.99362 9.56581 7.17711 9.57193C7.31779 9.57805 7.3606 9.54135 7.33002 9.40067C7.15265 8.52604 6.97528 7.65141 6.80402 6.77678C6.78567 6.67892 6.75509 6.63611 6.65111 6.63611C6.55325 6.63611 6.50432 6.66058 6.49209 6.76455C6.47986 6.86853 6.44927 6.97251 6.43093 7.07648C6.27802 7.84102 6.12511 8.59944 5.9722 9.36398C5.94774 9.47407 5.91104 9.59028 6.11288 9.57193C6.27802 9.5597 6.45539 9.57193 6.63888 9.57193Z" fill="#007AD0"/>
</svg>
