<svg width="27" height="26" viewBox="0 0 27 26" fill="none" xmlns="http://www.w3.org/2000/svg">
<path d="M26 22.7111C25.9283 22.8349 25.824 22.9197 25.7001 22.9914C24.6178 23.6173 23.529 24.2367 22.4532 24.8691C22.2315 24.9995 22.049 24.9995 21.8208 24.8691C20.8298 24.2824 19.8257 23.7151 18.8282 23.1349C18.6717 23.0436 18.5609 23.0501 18.4109 23.1414C17.4134 23.7216 16.4158 24.2954 15.4183 24.8757C15.2031 24.9995 15.0271 25.0061 14.8119 24.8757C13.7362 24.2432 12.6474 23.6173 11.5651 22.9979C11.3369 22.8675 11.2521 22.7111 11.2521 22.4503C11.2651 21.1985 11.2651 19.9467 11.2521 18.6948C11.2521 18.4536 11.3369 18.3036 11.5455 18.1863C12.5561 17.6125 13.5601 17.0258 14.5642 16.452C14.7207 16.3607 14.7728 16.2629 14.7728 16.0869C14.7663 14.9329 14.7728 13.7789 14.7663 12.6249C14.7663 12.3706 14.8511 12.2206 15.0727 12.0968C16.1616 11.4774 17.2438 10.8515 18.3196 10.219C18.5348 10.0952 18.7173 10.0886 18.9325 10.2125C20.0083 10.8449 21.0971 11.4708 22.1794 12.0902C22.4076 12.2206 22.4988 12.3771 22.4923 12.6379C22.4793 13.7919 22.4923 14.9459 22.4858 16.0999C22.4858 16.2695 22.5314 16.3607 22.6814 16.4455C23.6659 17.0062 24.6374 17.5734 25.6153 18.1341C25.7523 18.2124 25.8892 18.3036 26 18.4145C26 19.8489 26 21.2767 26 22.7111ZM21.7882 13.0878C21.6643 13.153 21.5926 13.1986 21.5143 13.2442C20.6537 13.7398 19.7931 14.2287 18.939 14.7308C18.7173 14.8612 18.5348 14.8677 18.3066 14.7373C17.4394 14.2222 16.5658 13.7267 15.6921 13.2247C15.6269 13.1856 15.5617 13.1269 15.477 13.1269C15.4704 13.1464 15.4574 13.1595 15.4574 13.1725C15.4574 14.1831 15.4574 15.1872 15.4509 16.1977C15.4509 16.3151 15.5096 16.3673 15.5943 16.4194C16.5527 16.9671 17.5112 17.5213 18.4631 18.0755C18.5609 18.1341 18.6456 18.1472 18.7499 18.082C19.7084 17.5213 20.6733 16.9671 21.6382 16.4129C21.723 16.3673 21.7751 16.3151 21.7751 16.2043C21.7882 15.1806 21.7882 14.157 21.7882 13.0878ZM18.9912 19.2099C18.9846 19.236 18.9781 19.2555 18.9781 19.2751C18.9781 20.2726 18.9781 21.2767 18.9716 22.2742C18.9716 22.3981 19.0368 22.4438 19.1216 22.4959C20.08 23.0501 21.0319 23.5978 21.9903 24.152C22.1011 24.2172 22.1859 24.2106 22.2967 24.1454C23.2356 23.5978 24.181 23.0501 25.1263 22.5155C25.2698 22.4372 25.3089 22.346 25.3089 22.1895C25.3024 21.2637 25.3089 20.3378 25.3024 19.412C25.3024 19.1643 25.3024 19.1577 25.0677 19.2947C24.207 19.7902 23.3464 20.2792 22.4988 20.7812C22.2446 20.9311 22.0359 20.9442 21.7817 20.7877C20.9406 20.2857 20.0865 19.7967 19.2324 19.3077C19.1607 19.2686 19.0955 19.1969 18.9912 19.2099ZM18.2805 20.8073C18.2805 20.3444 18.2805 19.8815 18.2805 19.4185C18.2805 19.1643 18.2805 19.1643 18.0523 19.2947C17.1656 19.8032 16.2789 20.3118 15.3987 20.8334C15.2031 20.9507 15.0336 20.9507 14.8315 20.8334C13.9448 20.3118 13.0451 19.8032 12.1584 19.2816C11.9888 19.1838 11.9497 19.2099 11.9497 19.4055C11.9562 20.3509 11.9562 21.2897 11.9497 22.2351C11.9497 22.3786 12.0019 22.4503 12.1192 22.522C13.0711 23.0631 14.023 23.6108 14.9684 24.165C15.0793 24.2302 15.164 24.2302 15.2749 24.165C16.2202 23.6108 17.1721 23.0631 18.124 22.522C18.2479 22.4503 18.2935 22.372 18.287 22.2351C18.274 21.7526 18.2805 21.2767 18.2805 20.8073ZM21.4166 12.4879C21.384 12.4553 21.3644 12.4293 21.3383 12.4162C20.4777 11.9142 19.6106 11.4187 18.7499 10.9167C18.6326 10.8449 18.5543 10.8906 18.4631 10.9493C17.6416 11.4252 16.8201 11.8946 15.9986 12.3706C15.9464 12.4032 15.8747 12.4162 15.8551 12.501C16.7353 13.0095 17.622 13.5181 18.5087 14.0331C18.5869 14.0788 18.6521 14.0918 18.7304 14.0462C19.6236 13.5246 20.5168 13.0095 21.4166 12.4879ZM19.3498 18.5449C19.3954 18.584 19.4084 18.6036 19.428 18.6166C20.2951 19.1186 21.1558 19.6141 22.0164 20.1162C22.1337 20.1879 22.212 20.1422 22.3033 20.0901C23.1248 19.6141 23.9463 19.1382 24.7678 18.6622C24.8199 18.6296 24.8982 18.6231 24.8982 18.5318C24.018 18.0233 23.1313 17.5082 22.2446 16.9997C22.1663 16.954 22.1011 16.954 22.0229 16.9997C21.1427 17.5082 20.256 18.0233 19.3498 18.5449ZM12.3279 18.5449C12.3605 18.5775 12.3735 18.6036 12.3931 18.6101C13.2667 19.1121 14.1339 19.6141 15.0075 20.1227C15.1184 20.1879 15.1836 20.1422 15.2749 20.0966C16.0964 19.6207 16.9179 19.1447 17.7394 18.6688C17.7915 18.6362 17.8632 18.6231 17.8893 18.5318C17.0287 18.0363 16.1616 17.5408 15.3009 17.0323C15.1575 16.9475 15.0597 16.9606 14.9293 17.0388C14.2317 17.4495 13.5275 17.8538 12.8234 18.258C12.6604 18.3493 12.4974 18.4471 12.3279 18.5449Z" fill="#007AD0" stroke="#007AD0" stroke-width="0.4"/>
<path d="M10.5936 18.3363C10.5936 20.0837 10.574 21.8375 10.6001 23.5848C10.6262 24.9801 9.21139 25.5017 8.26601 25.0127C7.69878 24.7193 7.45755 24.2368 7.45755 23.6174C7.45755 21.8766 7.45755 20.1358 7.45103 18.395C7.45103 18.0169 7.23587 17.8278 6.8838 17.88C6.66213 17.9126 6.53173 18.0364 6.51217 18.2646C6.50565 18.3559 6.50565 18.4407 6.50565 18.5319C6.50565 20.2075 6.50565 21.8831 6.49913 23.5587C6.49913 24.3737 6.1275 24.9018 5.42336 25.117C4.34758 25.443 3.36308 24.7388 3.35656 23.6174C3.35004 22.0461 3.35656 20.4749 3.35656 18.9101C3.35656 18.6167 3.35656 18.6167 3.09577 18.7145C2.02651 19.0992 1.0029 18.395 1.0029 17.2606C0.996378 15.7154 1.0029 14.1702 1.0029 12.625C1.0029 10.5451 2.32643 8.98037 4.38018 8.61525C4.70617 8.55658 5.03868 8.51746 5.3712 8.51746C8.36381 8.51746 11.3564 8.51746 14.349 8.51746C15.0532 8.51746 15.6204 8.77825 15.9334 9.44327C16.4354 10.5125 15.6921 11.6991 14.4925 11.7317C13.6058 11.7513 12.7191 11.7383 11.8324 11.7383C11.0369 11.7383 10.5806 12.1947 10.5806 12.9966C10.5936 14.7765 10.5936 16.5564 10.5936 18.3363ZM4.07375 18.069C4.07375 19.4447 4.07375 20.8204 4.07375 22.1896C4.07375 22.6916 4.06723 23.2002 4.08027 23.7022C4.08679 24.0869 4.32802 24.3737 4.69313 24.452C5.32556 24.6019 5.80151 24.2303 5.80151 23.5848C5.80803 21.8962 5.80803 20.201 5.80803 18.5124C5.80803 18.3755 5.81455 18.2386 5.83411 18.1016C5.87323 17.7822 6.03622 17.5344 6.30354 17.3649C6.70777 17.1041 7.13156 17.0845 7.55535 17.2997C7.97262 17.5083 8.15517 17.8734 8.15517 18.3363C8.15517 20.025 8.16169 21.7202 8.16821 23.4088C8.16821 23.5327 8.16821 23.65 8.18125 23.7739C8.22037 24.139 8.47465 24.3998 8.83324 24.4585C9.47218 24.5693 9.89597 24.2107 9.89597 23.5587C9.89597 20.012 9.89597 16.4652 9.89597 12.9184C9.89597 11.8035 10.6718 11.0276 11.7802 11.0276C12.6017 11.0276 13.4232 11.0276 14.2447 11.0276C14.4077 11.0276 14.5707 11.0146 14.7272 10.9754C15.1314 10.8711 15.3987 10.5321 15.3987 10.1213C15.4052 9.71711 15.164 9.39112 14.7728 9.26072C14.5837 9.19552 14.3881 9.19552 14.1926 9.19552C11.3629 9.19552 8.53332 9.19552 5.70371 9.19552C5.4364 9.19552 5.16908 9.20204 4.90177 9.22812C3.31744 9.3846 1.68096 10.4082 1.70052 12.6706C1.71356 14.1506 1.70052 15.6306 1.70704 17.1106C1.70704 17.2345 1.71356 17.3519 1.73964 17.4757C1.79832 17.7887 1.98739 17.9843 2.28731 18.0625C2.88713 18.2255 3.36308 17.8669 3.36308 17.2345C3.3696 15.7219 3.36308 14.2093 3.36308 12.6967C3.36308 12.2533 3.36308 12.2664 3.81295 12.2468C4.04115 12.2403 4.07375 12.3185 4.07375 12.5206C4.07375 14.3788 4.07375 16.2239 4.07375 18.069Z" fill="#007AD0" stroke="#007AD0" stroke-width="0.4"/>
<path d="M10.4567 4.46858C10.4632 6.38542 8.91149 7.94366 6.98813 7.95018C5.08433 7.9567 3.51957 6.39846 3.51305 4.49466C3.50001 2.58434 5.05826 1.00654 6.96857 1.00002C8.88541 0.993501 10.4502 2.54522 10.4567 4.46858ZM4.21719 4.4751C4.21719 6.01378 5.45597 7.24604 6.99465 7.23952C8.52682 7.233 9.75907 5.99423 9.75255 4.45554C9.74603 2.9299 8.51378 1.70416 6.98813 1.69764C5.45597 1.70416 4.21068 2.94294 4.21719 4.4751Z" fill="#007AD0" stroke="#007AD0" stroke-width="0.4"/>
</svg>
