<svg width="25" height="25" viewBox="0 0 25 25" fill="none" xmlns="http://www.w3.org/2000/svg">
<path d="M19.7813 14.1272C19.7813 14.3455 19.7158 14.593 19.7959 14.7749C19.8832 14.9642 20.1816 14.9132 20.3782 15.0078C20.5456 15.0952 20.7348 15.1534 20.8876 15.2553C21.0769 15.3863 21.2079 15.3717 21.3607 15.1971C21.55 14.9787 21.761 14.7749 21.9721 14.5784C22.336 14.2363 22.8601 14.229 23.2021 14.5566C23.5515 14.8914 23.5588 15.43 23.2094 15.8012C22.9838 16.0413 22.7509 16.267 22.518 16.4926C22.4161 16.5872 22.3943 16.66 22.4743 16.791C22.6708 17.104 22.8164 17.4533 22.9037 17.8173C22.9401 17.9628 22.9984 18.0065 23.1439 18.0065C23.4496 17.9992 23.7626 17.9992 24.0683 18.0065C24.6214 18.0138 25.0072 18.385 24.9999 18.8944C24.9926 19.3967 24.6214 19.7387 24.0683 19.746C23.7699 19.7533 23.4714 19.7533 23.173 19.746C23.0056 19.7387 22.9401 19.797 22.8965 19.9644C22.8164 20.3064 22.6854 20.6412 22.4889 20.9397C22.387 21.0925 22.4234 21.1871 22.5471 21.3036C22.7727 21.5146 22.9911 21.733 23.2021 21.9586C23.5588 22.3298 23.5588 22.8611 23.2094 23.2032C22.8601 23.5453 22.336 23.538 21.9648 23.1814C21.7392 22.963 21.5136 22.7374 21.2879 22.5045C21.1933 22.4099 21.1278 22.3662 20.9895 22.4535C20.6693 22.6573 20.3127 22.8029 19.9415 22.8902C19.7886 22.9266 19.7595 22.9994 19.7595 23.1377C19.7668 23.458 19.7668 23.7709 19.7595 24.0912C19.7522 24.6006 19.4029 24.9718 18.9225 24.9791C18.4276 24.9937 18.0491 24.637 18.02 24.1203C18.0054 23.7928 18.0127 23.4652 18.02 23.1377C18.0273 22.9849 17.9836 22.9121 17.8235 22.8757C17.4596 22.7883 17.1175 22.6428 16.7972 22.4463C16.6808 22.3735 16.6153 22.388 16.5207 22.4827C16.3023 22.7156 16.0767 22.9339 15.8438 23.1595C15.458 23.5307 14.9267 23.5453 14.5773 23.2032C14.228 22.8538 14.2425 22.3225 14.6065 21.9368C14.8175 21.7184 15.0359 21.4928 15.2615 21.2817C15.3707 21.1798 15.3925 21.0925 15.3052 20.9615C15.1087 20.6412 14.9631 20.2992 14.883 19.9352C14.8539 19.797 14.7811 19.746 14.6356 19.7533C14.3153 19.7606 14.0024 19.7606 13.6821 19.7533C13.1653 19.746 12.7796 19.3821 12.7723 18.8944C12.765 18.4141 13.1435 18.0356 13.6603 18.0138C13.9805 17.9992 14.2935 18.0065 14.6137 18.0138C14.7593 18.021 14.8466 17.9847 14.883 17.8245C14.9631 17.4606 15.1087 17.1185 15.3125 16.7983C15.3925 16.6746 15.3707 16.5945 15.2688 16.4999C15.0359 16.2815 14.8175 16.0559 14.5919 15.8303C14.2353 15.4591 14.2207 14.9278 14.5628 14.5857C14.9121 14.229 15.4435 14.2363 15.8292 14.6075C16.0548 14.8186 16.2732 15.0369 16.4843 15.2626C16.5862 15.3717 16.6662 15.4081 16.8045 15.3208C17.1175 15.1243 17.4668 14.9787 17.8307 14.8914C17.9763 14.855 18.0127 14.7822 18.0127 14.6439C18.0054 14.3382 18.0054 14.0253 18.0127 13.7196C18.0273 13.181 18.3912 12.7952 18.8788 12.7879C19.381 12.7807 19.7449 13.1737 19.7522 13.7268C19.7522 13.8651 19.7522 13.9961 19.7522 14.1344C19.7741 14.1272 19.7813 14.1272 19.7813 14.1272ZM21.2879 18.8944C21.2879 17.5771 20.2471 16.5363 18.9807 16.4853C17.6415 16.4417 16.477 17.5989 16.5134 18.9308C16.5498 20.2045 17.5906 21.2599 18.9007 21.2599C20.2399 21.2672 21.2879 20.2264 21.2879 18.8944Z" fill="#007AD0"/>
<path d="M11.9208 1.38944e-05C15.4508 -0.00726442 18.3184 2.84583 18.3257 6.37582C18.333 9.89852 15.4726 12.7662 11.9426 12.7735C8.41262 12.7807 5.54497 9.92036 5.53769 6.39765C5.53769 2.86767 8.38351 0.00729221 11.9208 1.38944e-05ZM11.9208 11.0339C14.49 11.0412 16.5862 8.95234 16.5862 6.3831C16.5862 3.82113 14.5046 1.74681 11.9426 1.73953C9.38064 1.73225 7.29176 3.79929 7.28448 6.36126C7.26993 8.93778 9.34425 11.0267 11.9208 11.0339Z" fill="#007AD0"/>
<path d="M6.8769 23.8292C5.2975 23.8292 3.71811 23.8292 2.13872 23.8292C0.828619 23.8292 0.0207261 23.0213 0.0207261 21.7039C0.0207261 21.0125 -0.0447787 20.321 0.0571177 19.6369C0.239076 18.4141 0.930515 17.4898 1.84758 16.711C3.05578 15.692 4.46778 15.0734 5.96711 14.6221C7.90314 14.0399 9.88284 13.7851 11.8989 13.7924C12.3939 13.7924 12.7651 14.1345 12.7869 14.6003C12.8087 15.0879 12.4812 15.4737 11.979 15.5246C11.8698 15.5392 11.7606 15.5319 11.6515 15.5319C9.99202 15.5392 8.36167 15.7503 6.76044 16.1942C5.3994 16.58 4.10386 17.1186 2.99028 18.0138C2.69915 18.2467 2.43713 18.516 2.21878 18.8144C1.91309 19.2366 1.73841 19.7024 1.75296 20.2337C1.76024 20.7141 1.75296 21.1944 1.75296 21.6748C1.75296 22.046 1.78208 22.0751 2.16055 22.0751C5.32662 22.0751 8.49996 22.0751 11.666 22.0751C11.7679 22.0751 11.8698 22.0678 11.9644 22.0824C12.4594 22.1333 12.8014 22.5118 12.7796 22.9995C12.7578 23.4653 12.3939 23.8219 11.8989 23.8219C10.2395 23.8365 8.55819 23.8292 6.8769 23.8292Z" fill="#007AD0"/>
</svg>
