<svg width="27" height="27" viewBox="0 0 27 27" fill="none" xmlns="http://www.w3.org/2000/svg">
<path d="M10.6635 1C10.8396 1.04564 11.0222 1.08477 11.1982 1.14997C12.1828 1.50209 12.7893 2.18675 12.9457 3.23657C12.9653 3.36046 13.011 3.41914 13.1153 3.47131C13.7413 3.79082 14.2629 4.24074 14.6215 4.85368C14.6998 4.99061 14.8106 4.97757 14.9345 4.97757C16.3039 4.97757 17.6667 4.97757 19.036 4.97757C19.5511 4.97757 19.6359 5.06234 19.6359 5.57094C19.6359 6.46427 19.6359 7.35759 19.6359 8.25743C19.6359 8.46609 19.5968 8.65519 19.3555 8.71388C19.0751 8.7856 18.873 8.61607 18.873 8.29656C18.8665 7.54017 18.8599 6.78378 18.8795 6.02739C18.886 5.79917 18.8339 5.72744 18.5926 5.73396C17.4971 5.747 16.3951 5.74048 15.2997 5.74048C15.2149 5.74048 15.1236 5.74048 15.0193 5.74048C15.1236 6.20344 15.1954 6.64032 15.2019 7.09025C15.2084 7.4228 15.0845 7.55321 14.752 7.55321C11.7981 7.55321 8.84429 7.55321 5.89697 7.55321C5.54486 7.55321 5.44053 7.43584 5.44053 7.0772C5.44053 6.68597 5.48618 6.30125 5.58399 5.91654C5.61659 5.7796 5.59703 5.73396 5.44053 5.73396C4.27986 5.74048 3.11268 5.74048 1.95201 5.73396C1.80203 5.73396 1.74335 5.7796 1.76291 5.92958C1.76943 5.97522 1.76291 6.02739 1.76291 6.07303C1.76291 12.3459 1.76291 18.6187 1.76291 24.885C1.76291 25.2697 1.72379 25.2306 2.09546 25.2306C7.57277 25.2306 13.0436 25.2306 18.5209 25.2371C18.7752 25.2371 18.8599 25.1784 18.8404 24.9176C18.8208 24.6046 18.9643 24.4416 19.199 24.4351C19.4272 24.4351 19.5968 24.6307 19.5968 24.9241C19.5968 25.1458 19.6033 25.361 19.5968 25.5827C19.5902 25.8565 19.4598 25.9804 19.186 25.987C19.1534 25.987 19.1208 25.987 19.0882 25.987C13.2327 25.987 7.37715 25.987 1.51513 25.9935C1.29343 25.9935 1.11737 25.9478 1 25.7457C1 18.8991 1 12.0459 1 5.19927C1.13041 5.01017 1.31299 4.97105 1.52817 4.97105C2.91706 4.97757 4.31247 4.97105 5.70136 4.97757C5.82525 4.97757 5.92958 4.97757 6.00782 4.84064C6.36646 4.2277 6.88159 3.77778 7.52061 3.46479C7.62493 3.41262 7.6771 3.35394 7.69014 3.23005C7.76187 2.57799 8.08138 2.04982 8.57694 1.6325C8.98774 1.28691 9.47027 1.11737 9.98539 1.00652C10.2071 1 10.4353 1 10.6635 1ZM10.2723 6.79682C11.5634 6.79682 12.8545 6.79682 14.1521 6.79682C14.2629 6.79682 14.3803 6.8229 14.3607 6.62728C14.2433 5.44705 13.6826 4.57329 12.5936 4.08425C12.3067 3.95383 12.1763 3.79082 12.1698 3.46479C12.1372 2.43453 11.2895 1.70423 10.2071 1.73031C9.17032 1.75639 8.36828 2.55842 8.39437 3.56912C8.40089 3.84298 8.25743 3.95383 8.04225 4.05164C6.95331 4.54069 6.3795 5.40141 6.223 6.57512C6.19692 6.77074 6.24909 6.80334 6.43166 6.80334C7.70318 6.7903 8.98774 6.79682 10.2723 6.79682Z" fill="#007AD0" stroke="#007AD0" stroke-width="0.3"/>
<path d="M25.9935 16.8124C25.9935 17.8883 25.987 18.9577 26 20.0336C26 20.2618 25.9152 20.3857 25.7196 20.4901C23.4896 21.6768 21.2595 22.8636 19.0295 24.0568C18.8273 24.1677 18.6578 24.1547 18.4622 24.0308C17.4254 23.3591 16.3756 22.7071 15.3388 22.0289C15.1497 21.905 15.1106 21.9442 15.0454 22.1463C14.5498 23.7178 12.9523 24.7611 11.283 24.6111C9.61372 24.4676 8.19874 23.1505 7.97704 21.5203C7.69014 19.4598 8.98774 17.6732 11.0352 17.3145C11.0417 17.3145 11.0482 17.308 11.0613 17.308C11.5373 17.2298 11.5373 17.2298 11.5373 16.7538C11.5373 15.6648 11.5438 14.5759 11.5308 13.4869C11.5308 13.2392 11.6221 13.0827 11.8438 12.9588C14.0869 11.759 16.3299 10.5592 18.5665 9.35288C18.736 9.26159 18.8599 9.32679 18.9969 9.39852C20.151 10.031 21.3052 10.6635 22.4593 11.296C23.5287 11.8829 24.5981 12.4697 25.6674 13.0501C25.9022 13.174 26 13.337 26 13.6108C25.9804 14.6802 25.9935 15.7496 25.9935 16.8124ZM19.1338 23.0527C19.2903 22.9744 19.4468 22.8897 19.6033 22.8114C21.4095 21.8659 23.2157 20.9204 25.0219 19.9684C25.1262 19.9097 25.2306 19.8706 25.2306 19.7076C25.224 17.921 25.224 16.1278 25.2306 14.3411C25.2306 14.1912 25.198 14.152 25.0545 14.2303C24.6176 14.4716 24.1873 14.7063 23.7439 14.928C23.62 14.9932 23.6004 15.078 23.6004 15.2019C23.6069 15.7952 23.5939 16.3886 23.6069 16.982C23.6135 17.2232 23.5222 17.3797 23.307 17.4906C22.8245 17.7449 22.3485 18.0122 21.8725 18.2731C21.4486 18.5013 21.1813 18.3448 21.1813 17.8557C21.1813 17.4319 21.1747 17.0081 21.1813 16.5842C21.1878 16.3951 21.1617 16.3299 20.9596 16.4473C20.4184 16.7538 19.8641 17.0602 19.3099 17.3406C19.1338 17.4319 19.0947 17.5362 19.0947 17.7188C19.1012 19.4076 19.1012 21.103 19.1012 22.7918C19.1012 22.8766 19.0816 22.9614 19.1338 23.0527ZM18.2796 22.9809C18.2926 22.9157 18.3057 22.8897 18.3057 22.8701C18.3057 21.103 18.3057 19.3424 18.3122 17.5754C18.3122 17.4449 18.247 17.3928 18.1492 17.3406C16.2387 16.2647 14.3281 15.1823 12.4241 14.0999C12.235 13.9955 12.2154 14.0477 12.2154 14.2303C12.222 15.1953 12.222 16.1669 12.2154 17.132C12.2154 17.3015 12.2676 17.3602 12.4306 17.4058C13.9108 17.8166 14.8498 18.7817 15.0845 20.2945C15.1823 20.9074 15.4236 21.2334 15.9257 21.5203C16.7147 21.9637 17.4776 22.4789 18.2796 22.9809ZM14.439 20.927C14.4455 19.3033 13.1609 18.0057 11.5373 17.9992C9.92019 17.9927 8.61606 19.2838 8.60954 20.9009C8.60302 22.5115 9.90714 23.8286 11.5112 23.8351C13.1153 23.8417 14.4324 22.531 14.439 20.927ZM12.6654 13.3565C12.6849 13.4217 12.7306 13.4413 12.7762 13.4609C14.7128 14.5563 16.6495 15.6518 18.5861 16.7472C18.6969 16.8124 18.7752 16.7929 18.873 16.7342C19.4468 16.4147 20.0206 16.0952 20.5944 15.7757C20.6401 15.7496 20.7053 15.7431 20.7053 15.6648C20.6987 15.6583 20.6922 15.6518 20.6857 15.6453C18.6904 14.5563 16.6951 13.4609 14.6998 12.3719C14.6215 12.3263 14.5563 12.3263 14.4781 12.3719C13.8847 12.7045 13.2848 13.024 12.6654 13.3565ZM24.8458 13.4609C24.748 13.4022 24.6894 13.363 24.6241 13.3304C22.9484 12.4176 21.2726 11.5112 19.5968 10.5983C19.3099 10.4418 19.0295 10.1875 18.736 10.168C18.4296 10.1484 18.1427 10.4353 17.8492 10.5853C17.621 10.7026 17.3863 10.8005 17.1776 10.9569C17.1972 10.9765 17.1972 10.9895 17.2037 10.9895C19.186 12.085 21.1682 13.174 23.1505 14.2694C23.2287 14.3151 23.2939 14.3151 23.3722 14.2694C23.8547 14.0021 24.3307 13.7412 24.8458 13.4609ZM21.9377 17.3537C22.2115 17.2037 22.4528 17.0733 22.7006 16.9494C22.8179 16.8907 22.8571 16.8124 22.8571 16.682C22.8505 16.1865 22.8505 15.6909 22.8571 15.1953C22.8571 15.0649 22.8179 14.9867 22.7071 14.928C20.6205 13.7869 18.5339 12.6393 16.4473 11.4982C16.3756 11.459 16.3104 11.4134 16.2191 11.459C15.9517 11.609 15.6909 11.7525 15.404 11.909C15.4953 11.9611 15.5605 12.0002 15.6257 12.0328C17.621 13.1087 19.6098 14.1912 21.6051 15.2671C21.8529 15.3975 21.9572 15.567 21.9507 15.8474C21.9311 16.3299 21.9377 16.8255 21.9377 17.3537Z" fill="#007AD0" stroke="#007AD0" stroke-width="0.3"/>
<path d="M3.23656 11.2113C3.23656 10.7744 3.23656 10.331 3.23656 9.89414C3.23656 9.5681 3.35393 9.45073 3.67344 9.44421C4.48852 9.44421 5.29707 9.44421 6.11215 9.44421C6.43166 9.44421 6.56207 9.56811 6.56207 9.88109C6.56207 10.7614 6.56207 11.6351 6.56207 12.5154C6.56207 12.8349 6.43818 12.9588 6.11867 12.9588C5.30359 12.9588 4.49504 12.9588 3.67996 12.9588C3.34741 12.9588 3.23656 12.8414 3.23004 12.4959C3.23656 12.072 3.23656 11.6417 3.23656 11.2113ZM3.98643 11.1526C3.98643 11.4395 3.99295 11.7199 3.98643 12.0068C3.98643 12.1307 4.01903 12.1829 4.14945 12.1763C4.64501 12.1698 5.14058 12.1698 5.63614 12.1763C5.7796 12.1763 5.8122 12.1242 5.8122 11.9938C5.80568 11.4395 5.80568 10.8918 5.8122 10.3375C5.8122 10.2136 5.7796 10.1615 5.64919 10.168C5.15362 10.1745 4.65805 10.1745 4.16249 10.168C4.01903 10.168 3.97991 10.2202 3.98643 10.3506C3.99295 10.6179 3.98643 10.8853 3.98643 11.1526Z" fill="#007AD0" stroke="#007AD0" stroke-width="0.3"/>
<path d="M3.23657 16.2843C3.23657 15.8474 3.23657 15.404 3.23657 14.9671C3.23657 14.6411 3.35394 14.5237 3.67345 14.5172C4.48853 14.5172 5.29708 14.5172 6.11216 14.5172C6.44471 14.5172 6.56208 14.6411 6.56208 14.9802C6.56208 15.8474 6.56208 16.7212 6.56208 17.5884C6.56208 17.9079 6.43819 18.0318 6.1252 18.0318C5.31012 18.0318 4.50157 18.0318 3.68649 18.0318C3.35394 18.0318 3.24309 17.9144 3.23657 17.5689C3.23657 17.145 3.23657 16.7147 3.23657 16.2843ZM3.98644 16.2582C3.98644 16.5256 3.99296 16.7929 3.98644 17.0602C3.97992 17.2233 4.01904 17.295 4.20162 17.2885C4.67111 17.2754 5.14711 17.2819 5.61659 17.2885C5.76005 17.2885 5.81873 17.2493 5.81873 17.0929C5.81221 16.5451 5.81221 16.0039 5.81873 15.4562C5.81873 15.3258 5.78613 15.2671 5.64268 15.2671C5.15363 15.2736 4.66458 15.2736 4.17554 15.2671C4.01904 15.2671 3.98644 15.3323 3.98644 15.4692C3.99296 15.7366 3.98644 15.9974 3.98644 16.2582Z" fill="#007AD0" stroke="#007AD0" stroke-width="0.3"/>
<path d="M3.23657 21.3378C3.23657 20.9009 3.23657 20.4575 3.23657 20.0206C3.23657 19.7141 3.36046 19.5968 3.66693 19.5968C4.48853 19.5968 5.31012 19.5902 6.1252 19.5968C6.41863 19.5968 6.55556 19.7402 6.55556 20.0336C6.55556 20.9205 6.55556 21.8073 6.55556 22.6875C6.55556 22.981 6.42515 23.1114 6.14476 23.1114C5.31012 23.1179 4.46897 23.1179 3.63433 23.1114C3.36046 23.1114 3.23657 22.981 3.23657 22.7006C3.23657 22.2441 3.23657 21.7942 3.23657 21.3378ZM5.81221 21.3639C5.81221 21.09 5.80569 20.8096 5.81221 20.5357C5.81221 20.4118 5.78613 20.3401 5.63615 20.3401C5.14059 20.3466 4.64502 20.3466 4.14946 20.3401C4.01904 20.3401 3.98644 20.3988 3.98644 20.5162C3.99296 21.0704 3.99296 21.6247 3.98644 22.1724C3.98644 22.3159 4.03861 22.355 4.17554 22.355C4.66458 22.3485 5.15363 22.3485 5.64268 22.355C5.78613 22.355 5.82525 22.2963 5.81873 22.1659C5.80569 21.9051 5.81221 21.6312 5.81221 21.3639Z" fill="#007AD0" stroke="#007AD0" stroke-width="0.3"/>
<path d="M10.3375 10.8069C11.2048 10.8069 12.0785 10.8069 12.9458 10.8069C13.2587 10.8069 13.4087 10.9308 13.4152 11.1721C13.4152 11.4134 13.2587 11.5568 12.9588 11.5568C11.2048 11.5568 9.45071 11.5633 7.69667 11.5568C7.35108 11.5568 7.17502 11.3221 7.27935 11.0417C7.35108 10.8526 7.50105 10.8004 7.69015 10.8004C8.56391 10.8135 9.45071 10.8069 10.3375 10.8069Z" fill="#007AD0" stroke="#007AD0" stroke-width="0.3"/>
<path d="M9.17033 16.6691C8.66824 16.6691 8.16615 16.6691 7.65755 16.6691C7.37064 16.6691 7.21414 16.5386 7.20762 16.3039C7.2011 16.0692 7.3576 15.9257 7.63798 15.9192C8.6552 15.9192 9.66589 15.9192 10.6831 15.9192C10.9635 15.9192 11.1004 16.0431 11.1004 16.2843C11.1069 16.5321 10.957 16.6625 10.6766 16.6691C10.1745 16.6756 9.67241 16.6691 9.17033 16.6691Z" fill="#007AD0" stroke="#007AD0" stroke-width="0.3"/>
<path d="M11.746 3.95379C11.746 4.76886 11.0874 5.42744 10.2788 5.42744C9.48982 5.42744 8.79864 4.7167 8.80516 3.90814C8.81168 3.11915 9.48982 2.46057 10.2853 2.46709C11.1004 2.48013 11.746 3.13871 11.746 3.95379ZM10.2853 4.66453C10.6961 4.66453 11.0026 4.34502 10.9961 3.93423C10.9896 3.54299 10.6635 3.23652 10.2723 3.23652C9.88106 3.23652 9.56155 3.55603 9.55503 3.94727C9.55503 4.34502 9.88106 4.67105 10.2853 4.66453Z" fill="#007AD0" stroke="#007AD0" stroke-width="0.3"/>
<path d="M10.6505 22.6941C10.5136 22.7006 10.4092 22.6289 10.3375 22.5245C10.005 22.042 9.67242 21.5595 9.34639 21.077C9.21597 20.8813 9.26162 20.6988 9.45072 20.5749C9.65937 20.4379 9.82239 20.4575 9.97236 20.6662C10.168 20.9335 10.3636 21.2074 10.5527 21.4812C10.7222 21.716 10.7222 21.716 10.9439 21.5138C11.6221 20.8944 12.3002 20.2684 12.9718 19.6489C13.1088 19.5251 13.2457 19.4533 13.4348 19.5055C13.7087 19.5903 13.7934 19.9098 13.5913 20.1054C12.7045 20.9335 11.8177 21.7551 10.9244 22.5767C10.8526 22.6419 10.7614 22.6876 10.6505 22.6941Z" fill="#007AD0" stroke="#007AD0" stroke-width="0.3"/>
</svg>
