<svg width="25" height="26" viewBox="0 0 25 26" fill="none" xmlns="http://www.w3.org/2000/svg">
<path d="M11.6598 7.51916C11.6527 8.9135 11.6456 10.3078 11.3254 11.6737C10.9911 13.1036 10.237 14.1849 8.77864 14.6545C8.34468 14.7967 7.90362 14.8821 7.45544 14.9248C6.18204 15.0457 4.90152 15.0671 3.63524 14.8394C1.75004 14.498 0.718511 13.4664 0.305901 11.5457C0.0284559 10.2438 0.00711397 8.92061 0 7.59741C0 6.2173 0.00711399 4.83008 0.305901 3.4642C0.569117 2.28328 1.08844 1.25887 2.20533 0.647068C2.85981 0.29137 3.58544 0.134863 4.31818 0.0779511C5.54889 -0.0287583 6.78672 -0.0501002 8.00321 0.170433C9.93821 0.511903 10.9697 1.57188 11.3752 3.57802C11.6456 4.87276 11.6527 6.19596 11.6598 7.51916ZM9.99512 7.51205C9.99512 7.21326 10.0022 6.90736 9.99512 6.60857C9.95955 5.54859 9.9311 4.4815 9.63942 3.44997C9.38332 2.55361 8.82132 2.01295 7.91073 1.84933C6.55908 1.60745 5.21454 1.62168 3.86288 1.82799C2.89538 1.97738 2.27647 2.52516 2.02748 3.47843C1.92077 3.87681 1.84252 4.27519 1.79983 4.68069C1.62198 6.42361 1.64333 8.17364 1.75715 9.91656C1.79983 10.6066 1.90654 11.2896 2.16976 11.9369C2.39029 12.4776 2.76733 12.8475 3.31511 13.0467C3.86288 13.2388 4.43912 13.3028 5.01535 13.3242C6.01842 13.3597 7.02148 13.374 8.01033 13.1534C8.8142 12.9756 9.35487 12.506 9.58963 11.7093C9.63942 11.5385 9.69633 11.3678 9.7319 11.1971C9.98801 9.97348 9.98801 8.74276 9.99512 7.51205Z" fill="#007AD0"/>
<path d="M13.3387 17.4929C13.3458 16.1768 13.3529 14.8679 13.6161 13.5731C13.7869 12.7337 14.0785 11.9511 14.669 11.318C15.3235 10.6137 16.17 10.2936 17.0949 10.1584C18.5319 9.94499 19.9831 9.93788 21.413 10.1869C23.2698 10.507 24.3084 11.6666 24.6855 13.4735C24.9629 14.7825 24.9842 16.1128 24.9914 17.4431C24.9914 18.8161 24.9842 20.1962 24.6855 21.5479C24.4507 22.6079 24.0239 23.554 23.0848 24.1872C22.4872 24.5927 21.8043 24.7918 21.1 24.8843C19.7199 25.0622 18.3327 25.0906 16.9668 24.8416C15.0247 24.4859 14.0216 23.4402 13.6161 21.4483C13.3529 20.1322 13.3458 18.809 13.3387 17.4929ZM15.0034 17.5C15.0034 17.813 14.9962 18.1189 15.0034 18.432C15.0389 19.4919 15.0745 20.559 15.3662 21.5906C15.6152 22.4585 16.17 22.992 17.0593 23.1556C18.4038 23.4046 19.7555 23.3904 21.1071 23.1912C22.096 23.0418 22.7291 22.4869 22.971 21.5123C23.0706 21.1139 23.1488 20.7155 23.1915 20.31C23.3623 18.5813 23.348 16.8527 23.2342 15.1311C23.1915 14.4481 23.0919 13.7723 22.8358 13.1321C22.594 12.506 22.1529 12.1076 21.5126 11.9227C21.0004 11.7733 20.474 11.7164 19.9404 11.695C18.9445 11.6595 17.9556 11.6452 16.9739 11.8658C16.17 12.0436 15.6294 12.5131 15.3946 13.3099C15.3448 13.4806 15.2879 13.6514 15.2523 13.8221C15.0105 15.0386 15.0105 16.2693 15.0034 17.5Z" fill="#007AD0"/>
<path d="M19.165 8.33724C18.1691 8.32301 17.1802 8.32301 16.1985 8.14516C14.4271 7.82503 13.6161 6.9927 13.3885 5.2142C13.2818 4.36764 13.296 3.51397 13.4525 2.6674C13.7086 1.29441 14.5836 0.547443 15.8997 0.262885C17.2656 -0.0287881 18.6528 -0.00744618 20.0329 0.0210097C20.8012 0.0352376 21.5767 0.0708074 22.3307 0.241543C23.9385 0.604355 24.6784 1.37978 24.9131 3.00176C25.0412 3.91235 25.0341 4.82294 24.8491 5.72641C24.6214 6.88599 23.9243 7.63295 22.8003 7.98154C21.8185 8.28744 20.8084 8.29455 19.7982 8.33724C19.5919 8.34435 19.3785 8.33724 19.165 8.33724ZM19.165 6.64411C19.6346 6.64411 20.1041 6.65834 20.5736 6.637C21.1641 6.60854 21.7616 6.55874 22.3307 6.38089C22.8145 6.2315 23.1275 5.93272 23.2129 5.42762C23.3623 4.57395 23.3694 3.72027 23.1987 2.8666C23.1133 2.42553 22.8501 2.14809 22.4232 1.99869C22.1458 1.8991 21.8612 1.84218 21.5696 1.7995C20.2606 1.62877 18.9516 1.66434 17.6355 1.71413C17.0806 1.73548 16.5186 1.7995 15.9851 1.96312C15.4871 2.11252 15.1812 2.42553 15.0958 2.94485C14.9536 3.7843 14.9465 4.62375 15.1101 5.45608C15.1954 5.91849 15.4729 6.21727 15.914 6.35955C16.0705 6.40935 16.2341 6.45203 16.4048 6.4876C17.3154 6.67257 18.2402 6.65834 19.165 6.64411Z" fill="#007AD0"/>
<path d="M5.94016 16.6677C6.94323 16.6891 8.0459 16.6891 9.12722 16.9309C10.5002 17.244 11.3539 18.0549 11.5673 19.4706C11.7167 20.4595 11.7238 21.4554 11.5246 22.4372C11.2472 23.7675 10.3651 24.4789 9.08454 24.7563C7.72577 25.0409 6.35277 25.0195 4.97978 24.9911C4.18301 24.9768 3.38625 24.9342 2.60371 24.7563C1.09555 24.4148 0.313016 23.5825 0.0924829 22.0459C-0.0355684 21.178 -0.0213405 20.3101 0.113825 19.4493C0.334358 18.0834 1.13824 17.2582 2.5468 16.9381C2.84559 16.8669 3.1586 16.8171 3.4645 16.7815C4.24704 16.6891 5.05092 16.6677 5.94016 16.6677ZM5.84057 18.368C5.37105 18.368 4.90152 18.3537 4.432 18.3751C3.8202 18.4035 3.2084 18.4533 2.62505 18.6454C2.17688 18.7877 1.87809 19.0794 1.79272 19.556C1.6291 20.4168 1.6291 21.2847 1.79272 22.1455C1.87809 22.6008 2.15553 22.8782 2.58237 23.0276C2.85982 23.1272 3.14437 23.1841 3.43605 23.2197C4.72368 23.3833 6.01842 23.3477 7.31316 23.3051C7.88939 23.2837 8.46562 23.2268 9.02051 23.049C9.50426 22.8996 9.80305 22.5865 9.89553 22.0815C10.0449 21.242 10.0449 20.4026 9.88842 19.5702C9.80305 19.1007 9.51849 18.7948 9.06319 18.6525C8.9138 18.6027 8.75729 18.56 8.60079 18.5316C7.6902 18.3395 6.76538 18.3537 5.84057 18.368Z" fill="#007AD0"/>
</svg>
