<svg width="27" height="24" viewBox="0 0 27 24" fill="none" xmlns="http://www.w3.org/2000/svg">
<path d="M12.2687 19.5147C10.7408 19.5147 9.20613 19.5147 7.67818 19.5147C7.50318 19.5147 7.32817 19.5147 7.15316 19.4676C6.65507 19.3195 6.35217 18.9022 6.35217 18.33C6.35217 15.8328 6.34544 13.3289 6.35217 10.8317C6.35217 10.0845 6.81661 9.63354 7.55703 9.62681C7.94069 9.62008 7.94069 9.62008 7.94069 9.24314C7.94069 8.54311 7.91377 7.84309 8.12243 7.15652C8.69457 5.23818 10.5725 3.91217 12.538 4.05353C14.6179 4.20161 16.2872 5.74974 16.5699 7.77578C16.6439 8.32099 16.6035 8.85947 16.6102 9.40469C16.6102 9.57969 16.6574 9.64027 16.8324 9.63354C16.9872 9.62681 17.1555 9.62681 17.3035 9.66046C18.118 9.83547 18.3132 10.5759 18.1786 11.2086C18.1382 11.3971 17.9699 11.4846 17.7747 11.4711C17.5728 11.4576 17.4584 11.3365 17.418 11.1413C17.4112 11.1009 17.4112 11.0605 17.4112 11.0134C17.3978 10.4615 17.3574 10.4278 16.7987 10.4278C13.7698 10.4278 10.7408 10.4278 7.71857 10.4278C7.22048 10.4278 7.1599 10.4884 7.1599 10.9932C7.1599 13.3962 7.1599 15.7924 7.1599 18.1954C7.1599 18.6598 7.21374 18.7137 7.68492 18.7137C10.7543 18.7137 13.8236 18.7137 16.8929 18.7137C17.068 18.7137 17.2295 18.7002 17.3843 18.5791C17.5661 18.4377 17.7814 18.4848 17.9161 18.6531C18.0507 18.8214 18.044 19.03 17.8757 19.1983C17.7074 19.3666 17.4987 19.4743 17.2564 19.5012C17.1218 19.5147 16.9872 19.5214 16.8526 19.5214C15.3314 19.5147 13.8034 19.5147 12.2687 19.5147ZM8.75515 8.71812C8.75515 8.76524 8.75515 8.81909 8.75515 8.8662C8.76861 9.10852 8.65418 9.41815 8.80226 9.57296C8.95708 9.7345 9.28017 9.59988 9.52248 9.62681C9.69749 9.647 9.75134 9.57969 9.75134 9.40469C9.75134 8.95371 9.72441 8.50273 9.77826 8.05175C9.93981 6.75266 11.0975 5.79013 12.4236 5.85071C13.7024 5.91129 14.7659 6.98825 14.8063 8.2806C14.8198 8.65754 14.8198 9.03448 14.8063 9.41142C14.8063 9.56623 14.84 9.647 15.015 9.63354C15.2169 9.62008 15.4189 9.62008 15.6141 9.63354C15.7756 9.647 15.8093 9.57969 15.8093 9.43161C15.8025 9.0614 15.8227 8.69793 15.8025 8.32772C15.7352 6.85363 15.0419 5.76993 13.7024 5.17087C12.3764 4.57854 11.111 4.78048 10.0004 5.70936C9.07151 6.47669 8.7013 7.51327 8.75515 8.71812ZM12.2957 9.62008C12.8005 9.62008 13.2986 9.61335 13.8034 9.62008C13.965 9.62008 14.0255 9.57969 14.0188 9.41142C14.0053 9.05467 14.0188 8.6912 14.0121 8.33445C13.9919 7.4325 13.2717 6.69208 12.3832 6.64497C11.4812 6.59785 10.7004 7.25749 10.586 8.15272C10.5321 8.57004 10.5793 8.98736 10.5591 9.40469C10.5523 9.56623 10.6062 9.62681 10.7745 9.62008C11.2725 9.61335 11.7841 9.62008 12.2957 9.62008Z" fill="#007AD0" stroke="#007AD0" stroke-width="0.3"/>
<path d="M23.0653 8.81909C23.1999 8.64408 23.3345 8.46235 23.4759 8.28734C23.6509 8.07195 23.8797 8.03156 24.0682 8.17291C24.2567 8.31426 24.2836 8.54985 24.1153 8.77197C23.8192 9.1691 23.5163 9.55277 23.2201 9.9499C23.0653 10.1518 22.8768 10.1989 22.648 10.098C22.2037 9.90952 21.7527 9.72778 21.3085 9.53931C21.0392 9.42488 20.945 9.20276 21.046 8.98064C21.1402 8.76524 21.3556 8.69793 21.6248 8.7989C21.8066 8.86621 21.9816 8.94025 22.1566 9.01429C22.17 9.02102 22.1902 9.02102 22.2239 9.02775C22.1835 8.76524 22.0758 8.52966 21.9749 8.3008C20.4133 4.78721 17.7612 2.60636 13.9649 1.95345C8.4455 0.997648 3.14819 4.67278 2.02411 10.1788C1.44524 13.0192 1.98373 15.678 3.57898 18.1079C3.61263 18.155 3.64629 18.2021 3.67994 18.256C3.83476 18.4983 3.80783 18.7406 3.6059 18.8752C3.39724 19.0099 3.18185 18.9493 3.00684 18.7002C2.60971 18.1281 2.26643 17.529 1.98373 16.8896C-0.0019244 12.4135 1.07504 7.22384 4.70306 3.9391C7.10603 1.76498 9.96671 0.735138 13.1841 1.05823C17.9632 1.53613 21.2075 4.11411 22.9441 8.59697C22.971 8.66428 22.971 8.75851 23.0653 8.81909Z" fill="#007AD0" stroke="#007AD0" stroke-width="0.3"/>
<path d="M20.3661 11.875C21.9277 11.875 23.496 11.875 25.0576 11.875C25.6769 11.875 26 12.1914 26 12.8173C26 13.7866 26 14.7559 26 15.7251C26 16.3377 25.6836 16.654 25.0711 16.654C23.1662 16.654 21.2546 16.654 19.3497 16.654C19.1747 16.654 19.0334 16.6944 18.8988 16.8156C18.367 17.2598 17.8285 17.6973 17.29 18.1348C16.9198 18.4377 16.6102 18.3233 16.516 17.8521C16.4487 17.5223 16.3746 17.1992 16.3208 16.8694C16.2939 16.7011 16.2131 16.6473 16.0515 16.6608C15.8833 16.6742 15.715 16.6675 15.5467 16.6608C15.0621 16.6473 14.7255 16.3444 14.7188 15.8665C14.7053 14.803 14.6986 13.7395 14.7188 12.6827C14.7255 12.1914 15.0823 11.8885 15.6006 11.8817C17.1824 11.875 18.7709 11.875 20.3661 11.875ZM17.1958 17.1588C17.6468 16.7886 18.0776 16.4588 18.4814 16.1021C18.6968 15.9136 18.919 15.8396 19.2084 15.8396C21.1065 15.8463 23.0047 15.8396 24.9028 15.8463C25.1182 15.8463 25.2057 15.8059 25.199 15.5636C25.1788 14.6953 25.1855 13.827 25.199 12.952C25.2057 12.7096 25.125 12.6693 24.9028 12.6693C22.6008 12.676 20.3055 12.676 18.0035 12.676C17.2429 12.676 16.4823 12.676 15.7217 12.676C15.5804 12.676 15.5131 12.7029 15.5131 12.8645C15.5198 13.7933 15.5198 14.7222 15.5131 15.6511C15.5131 15.8126 15.5736 15.853 15.7217 15.8463C15.9775 15.8396 16.24 15.8396 16.5025 15.8463C16.8323 15.853 16.9535 15.954 17.0208 16.2704C17.0679 16.5531 17.1285 16.829 17.1958 17.1588Z" fill="#007AD0" stroke="#007AD0" stroke-width="0.3"/>
<path d="M11.1446 15.6915C11.1446 15.5636 11.1379 15.4424 11.1446 15.3145C11.1648 14.9308 11.111 14.6078 10.835 14.2712C10.236 13.5443 10.411 12.4404 11.1446 11.848C11.8716 11.2557 12.9351 11.3163 13.5813 11.9894C14.2409 12.676 14.2678 13.7529 13.6217 14.4395C13.4668 14.601 13.413 14.7558 13.4197 14.9712C13.4332 15.4828 13.4265 15.9876 13.4197 16.4992C13.413 17.2059 12.9418 17.6973 12.2822 17.6973C11.6293 17.6973 11.1514 17.1925 11.1446 16.4924C11.1446 16.2232 11.1446 15.9607 11.1446 15.6915ZM11.9524 15.4761C11.9524 15.8126 11.9524 16.1424 11.9524 16.479C11.9524 16.7482 12.0735 16.8896 12.2889 16.8896C12.4976 16.8896 12.612 16.7482 12.612 16.4723C12.612 15.8597 12.6187 15.2539 12.612 14.6414C12.6053 14.3654 12.6928 14.177 12.9149 14.002C13.4668 13.5712 13.3793 12.7096 12.7803 12.3731C12.3293 12.124 11.7572 12.2586 11.4677 12.6827C11.1783 13.1067 11.2523 13.6923 11.6697 14.0087C11.8918 14.177 11.9726 14.3587 11.9591 14.628C11.9389 14.9039 11.9524 15.1934 11.9524 15.4761Z" fill="#007AD0" stroke="#007AD0" stroke-width="0.3"/>
<path d="M20.2315 20.1338C20.2382 20.2281 20.1776 20.3223 20.0901 20.4098C19.3565 21.1166 18.5487 21.7089 17.6535 22.1935C17.4247 22.3147 17.2025 22.2608 17.0881 22.0656C16.9669 21.8637 17.0275 21.6281 17.2698 21.4935C18.0978 21.0291 18.8584 20.4771 19.5449 19.8242C19.6795 19.6963 19.8344 19.6559 20.0026 19.7434C20.1574 19.8175 20.2315 19.9386 20.2315 20.1338Z" fill="#007AD0" stroke="#007AD0" stroke-width="0.3"/>
<path d="M6.92427 22.1397C6.81657 22.1397 6.72233 22.0926 6.63483 22.0454C5.81365 21.5675 5.0665 21.0021 4.3934 20.3358C4.17801 20.1271 4.16455 19.8982 4.33282 19.7165C4.5011 19.5415 4.73668 19.5482 4.95208 19.7569C5.59152 20.3762 6.29155 20.9079 7.05889 21.3589C7.24062 21.4666 7.34832 21.6079 7.29447 21.83C7.24735 22.0252 7.106 22.1195 6.92427 22.1397Z" fill="#007AD0" stroke="#007AD0" stroke-width="0.3"/>
<path d="M13.137 23.5332C13.0092 23.5534 12.7938 23.5265 12.6995 23.2572C12.6053 22.9745 12.7938 22.7457 13.1505 22.7188C13.7698 22.6716 14.3756 22.5639 14.9679 22.4091C15.1429 22.362 15.3179 22.3082 15.4929 22.2543C15.7756 22.1735 15.9843 22.261 16.065 22.4899C16.1458 22.7255 16.0247 22.9207 15.742 23.0149C14.9342 23.2842 14.1063 23.4457 13.137 23.5332Z" fill="#007AD0" stroke="#007AD0" stroke-width="0.3"/>
<path d="M11.1514 23.5062C10.2427 23.4053 9.3744 23.2235 8.52629 22.9139C8.28398 22.8264 8.17628 22.6177 8.24359 22.4024C8.31763 22.1802 8.53302 22.0725 8.79553 22.16C9.40806 22.3687 10.0273 22.5302 10.66 22.6245C10.8418 22.6514 11.0235 22.6716 11.2052 22.6985C11.461 22.7389 11.6091 22.9072 11.5889 23.136C11.5687 23.3649 11.3802 23.513 11.1514 23.5062Z" fill="#007AD0" stroke="#007AD0" stroke-width="0.3"/>
<path d="M21.995 17.906C21.995 17.98 21.9748 18.0541 21.9344 18.1214C21.7662 18.3704 21.6113 18.6262 21.4363 18.8685C21.2883 19.0705 21.0459 19.1041 20.8642 18.9762C20.6892 18.8483 20.6488 18.6262 20.7767 18.4175C20.9382 18.1618 21.0998 17.9127 21.2748 17.6704C21.3892 17.5156 21.544 17.4483 21.7392 17.5223C21.9142 17.5896 21.995 17.7175 21.995 17.906Z" fill="#007AD0" stroke="#007AD0" stroke-width="0.3"/>
<path d="M19.9488 15.005C19.417 15.2002 19.2622 15.1935 19.1343 14.9646C19.0065 14.7425 19.0738 14.6213 19.5113 14.2511C19.4305 14.204 19.3565 14.1569 19.2824 14.1098C19.0805 13.9684 19.0266 13.7598 19.1343 13.5646C19.242 13.3761 19.4574 13.3155 19.6796 13.4165C19.6998 13.4299 19.7267 13.4367 19.7469 13.4501C19.9286 13.5848 19.969 13.4973 19.9555 13.3155C19.9555 13.2751 19.9555 13.2347 19.969 13.1944C20.0094 12.9857 20.1373 12.8713 20.3527 12.8645C20.5613 12.8578 20.7027 12.9722 20.7498 13.1742C20.7767 13.2819 20.7767 13.403 20.7902 13.5174C21.3152 13.3357 21.47 13.3492 21.5912 13.5713C21.7191 13.8136 21.6316 13.9752 21.2008 14.2579C21.4498 14.4329 21.7864 14.5742 21.5777 14.9713C21.4565 15.1935 21.2748 15.1935 20.7834 14.9983C20.7633 15.3012 20.7834 15.6646 20.3661 15.6646C19.9421 15.6646 19.9421 15.3146 19.9488 15.005Z" fill="#007AD0"/>
<path d="M17.6334 13.5307C18.118 13.3221 18.2863 13.3288 18.4276 13.5509C18.569 13.7798 18.4882 13.9481 18.0574 14.2712C18.3199 14.4394 18.6363 14.5942 18.4209 14.9846C18.2997 15.2068 18.1113 15.2068 17.6266 14.9914C17.6064 15.2 17.6603 15.4356 17.4584 15.5837C17.3843 15.6375 17.2968 15.6712 17.2026 15.6712C16.9401 15.6645 16.8391 15.4962 16.7987 14.9846C16.516 15.1193 16.2131 15.3414 15.9843 14.9375C15.8631 14.7221 15.9641 14.5606 16.3747 14.2644C16.1121 14.0894 15.7689 13.9144 16.0246 13.5375C16.24 13.2144 16.5227 13.3961 16.7987 13.5577C16.8256 13.2211 16.7852 12.8509 17.2564 12.8644C17.5055 12.8711 17.5862 13.0259 17.6334 13.5307Z" fill="#007AD0"/>
<path d="M23.9134 14.9915C23.8528 15.5232 23.7586 15.678 23.4893 15.6713C23.2201 15.6646 23.1124 15.4963 23.072 14.9915C22.7893 15.1261 22.4864 15.3415 22.2643 14.9376C22.1431 14.7222 22.2306 14.5809 22.6547 14.2645C22.3989 14.0962 22.0825 13.9414 22.2912 13.551C22.4124 13.3289 22.5739 13.3289 23.0653 13.5241C23.1662 12.9789 23.2537 12.851 23.523 12.8645C23.7855 12.8779 23.873 13.026 23.9134 13.5376C24.2028 13.4097 24.5192 13.1808 24.7413 13.6116C24.849 13.827 24.7413 13.9953 24.3307 14.2645C24.5999 14.4395 24.9298 14.6011 24.6942 14.9982C24.5663 15.2136 24.3778 15.2069 23.9134 14.9915Z" fill="#007AD0"/>
</svg>
