<svg width="25" height="22" viewBox="0 0 25 22" fill="none" xmlns="http://www.w3.org/2000/svg">
<path d="M24.9935 18.988C24.9087 19.1771 24.8631 19.3857 24.7327 19.5618C24.4197 19.9921 23.9958 20.2073 23.4611 20.2073C22.0853 20.2073 20.7094 20.2138 19.3401 20.2008C19.1575 20.2008 19.0793 20.2334 19.0336 20.4355C18.8706 21.231 18.1794 21.7657 17.3383 21.7657C14.9452 21.7657 12.5522 21.7657 10.1656 21.7657C9.33751 21.7657 8.50939 21.7657 7.67475 21.7657C6.78795 21.7657 6.14241 21.2441 5.94679 20.3768C5.90767 20.2138 5.82942 20.2008 5.69901 20.2008C4.32316 20.2008 2.94731 20.2008 1.57799 20.2008C0.586855 20.2073 0 19.6205 0 18.6228C0 16.934 0 15.2386 0 13.5498C0 11.6001 1.44105 10.1525 3.38419 10.1525C3.95801 10.1525 4.54486 10.0938 5.11215 10.2177C6.10329 10.4329 6.85968 10.9872 7.35524 11.874C7.44653 12.0305 7.47913 12.05 7.61607 11.9131C8.78326 10.7459 10.1917 10.1525 11.8414 10.1525C12.6956 10.1525 13.5498 10.0938 14.3975 10.2764C15.5516 10.5242 16.5428 11.0654 17.3709 11.9001C17.5013 12.0305 17.5404 12.0565 17.6448 11.8675C18.2838 10.7589 19.2553 10.1721 20.5399 10.1525C21.1463 10.1395 21.7593 10.0873 22.3657 10.2177C23.7285 10.5177 24.7066 11.5414 24.9544 12.9173C24.9609 12.9564 24.9804 12.989 25 13.0281C24.9935 15.0169 24.9935 16.9992 24.9935 18.988ZM12.487 20.3051C14.0715 20.3051 15.656 20.3051 17.2405 20.3051C17.5404 20.3051 17.6187 20.2334 17.6187 19.966C17.6187 18.6163 17.6317 17.2665 17.6122 15.9167C17.5796 13.9019 16.0602 12.1087 14.078 11.711C13.3346 11.561 12.5848 11.6197 11.8414 11.6197C9.33751 11.6197 7.3748 13.5824 7.36828 16.0928C7.36176 17.3578 7.36828 18.6293 7.36828 19.8943C7.36828 20.2529 7.42045 20.3051 7.77908 20.3051C9.35055 20.3051 10.9155 20.3051 12.487 20.3051ZM1.46714 15.9428C1.46714 16.8035 1.47366 17.6643 1.46062 18.5315C1.46062 18.6945 1.49322 18.7532 1.66927 18.7532C3.01252 18.7467 4.34924 18.7467 5.69249 18.7532C5.86854 18.7532 5.90767 18.701 5.90767 18.538C5.90115 17.6773 5.90115 16.8166 5.90767 15.9559C5.91419 15.4016 5.97939 14.8474 6.16849 14.3257C6.27282 14.0323 6.2989 13.7454 6.29238 13.4454C6.27282 12.5652 5.66641 11.8348 4.79917 11.6718C4.32316 11.5805 3.84064 11.6327 3.36463 11.6327C2.24961 11.6327 1.46062 12.4282 1.46062 13.5367C1.46062 14.3322 1.46714 15.1343 1.46714 15.9428ZM23.5263 15.9493C23.5263 15.1212 23.5263 14.2931 23.5263 13.465C23.5263 13.452 23.5263 13.4324 23.5263 13.4194C23.5068 12.5586 22.8938 11.8153 22.0462 11.6653C21.4658 11.561 20.8725 11.574 20.2986 11.6458C19.2032 11.7762 18.4077 12.8195 18.7859 14.1627C18.9489 14.743 19.0793 15.3299 19.0858 15.9363C19.0989 16.8035 19.0923 17.6773 19.0923 18.5445C19.0923 18.701 19.1249 18.7532 19.2945 18.7532C20.6377 18.7467 21.9744 18.7467 23.3177 18.7532C23.5068 18.7532 23.5459 18.6945 23.5459 18.5185C23.5198 17.6577 23.5263 16.8035 23.5263 15.9493Z" fill="#007AD0"/>
<path d="M12.5 0C14.8409 0 16.7449 1.91706 16.7384 4.26448C16.7319 6.59885 14.8213 8.49635 12.4869 8.49635C10.146 8.49635 8.24203 6.57929 8.24855 4.23187C8.25507 1.8975 10.1656 0 12.5 0ZM9.71569 4.24491C9.71569 5.77074 10.9676 7.02269 12.4935 7.02921C14.0193 7.02921 15.2778 5.78378 15.2843 4.25796C15.2908 2.71909 14.0323 1.46062 12.4935 1.46714C10.9611 1.46714 9.71569 2.71909 9.71569 4.24491Z" fill="#007AD0"/>
<path d="M3.90585 3.12341C5.37951 3.12341 6.59234 4.32972 6.59234 5.8099C6.59234 7.28356 5.38603 8.49639 3.90585 8.49639C2.43219 8.49639 1.21936 7.29008 1.21936 5.8099C1.21936 4.32972 2.43219 3.12341 3.90585 3.12341ZM5.1252 5.81642C5.13172 5.1448 4.58399 4.59055 3.91237 4.58403C3.24727 4.58403 2.69954 5.11872 2.6865 5.7773C2.67346 6.45544 3.21467 7.00969 3.88629 7.02273C4.56443 7.03578 5.11868 6.48804 5.1252 5.81642Z" fill="#007AD0"/>
<path d="M21.0876 3.12341C22.5613 3.12341 23.7676 4.32972 23.7676 5.8099C23.7676 7.28356 22.5613 8.48987 21.0811 8.48987C19.6075 8.48987 18.4012 7.27704 18.4012 5.80338C18.4012 4.32972 19.614 3.12341 21.0876 3.12341ZM22.307 5.80338C22.3005 5.13176 21.7462 4.58403 21.0746 4.59055C20.4095 4.59707 19.8683 5.13828 19.8683 5.80338C19.8683 6.475 20.416 7.02926 21.0876 7.02926C21.7593 7.02926 22.307 6.475 22.307 5.80338Z" fill="#007AD0"/>
</svg>
