<svg width="25" height="26" viewBox="0 0 25 26" fill="none" xmlns="http://www.w3.org/2000/svg">
<path d="M12.2599 25.6822C11.764 25.6152 11.2681 25.5616 10.7723 25.4812C5.5855 24.6704 1.2431 20.462 0.264718 15.3087C-0.318289 12.2329 0.0301754 9.29772 1.62507 6.57032C3.54162 3.29342 6.31593 1.14232 10.0418 0.284565C11.1073 0.0366191 12.1862 -0.0370945 13.2785 0.0165154C13.7945 0.0433203 14.1497 0.297967 14.2971 0.733547C14.4512 1.18253 14.3306 1.61811 13.9285 1.93977C12.5146 3.07898 11.5295 4.51304 11.0403 6.26206C9.65985 11.2009 12.8831 16.1799 17.9359 16.8902C19.8323 17.1583 21.6283 16.8165 23.3036 15.8783C23.518 15.7577 23.7391 15.6639 23.9871 15.6773C24.7242 15.7175 25.1799 16.4211 24.932 17.1382C24.5366 18.264 24.0005 19.3161 23.2969 20.281C21.1391 23.2497 18.224 24.9786 14.6054 25.5348C14.2435 25.5884 13.8816 25.6286 13.5198 25.6755C13.0976 25.6822 12.6821 25.6822 12.2599 25.6822ZM10.4774 2.42226C6.7113 3.36043 2.3287 6.50331 2.18797 12.8628C2.08745 17.4665 5.42467 22.1976 10.7253 23.3033C15.6508 24.3353 19.9529 21.5945 21.6283 18.8671C17.0111 19.6779 13.1177 18.4114 10.4305 14.4644C7.75 10.524 8.00464 6.4363 10.4774 2.42226Z" fill="#007AD0"/>
</svg>
