<svg width="25" height="28" viewBox="0 0 25 28" fill="none" xmlns="http://www.w3.org/2000/svg">
<path d="M8.78479 28.0031C7.3967 27.5866 6.257 26.6953 5.00771 26.0159C3.84609 25.3876 2.721 24.6935 1.57399 24.0433C0.536569 23.4443 0.00324701 22.5529 0.00324701 21.3548C0.00324701 15.2545 -0.00405877 9.16145 0.00324701 3.06112C0.0105528 1.24929 1.28176 0 3.1009 0C7.60126 0 12.1089 0 16.6093 0C18.4065 0 19.6704 1.22007 19.6996 3.00998C19.7215 4.25927 19.6996 5.50856 19.7069 6.75785C19.7069 7.15967 19.5535 7.47381 19.1809 7.64185C18.8449 7.79527 18.5234 7.72952 18.2385 7.48112C18.0047 7.27656 17.9536 7.00624 17.9536 6.71401C17.9609 5.49395 17.9609 4.27388 17.9536 3.05382C17.9536 2.37438 17.5883 1.90681 16.9892 1.7753C16.8942 1.75339 16.7919 1.75339 16.6896 1.75339C12.6057 1.75339 8.52179 1.75339 4.43786 1.75339C4.37941 1.75339 4.31366 1.75339 4.2406 1.75339C4.29905 1.87028 4.39402 1.8922 4.46708 1.93603C6.47617 3.09765 8.47795 4.27388 10.5017 5.41358C11.6487 6.0638 12.182 7.00624 12.182 8.31398C12.1674 12.6828 12.182 17.0444 12.1747 21.4132C12.1747 21.6763 12.2185 21.7712 12.5107 21.7639C13.8769 21.742 15.2431 21.7566 16.6093 21.7566C17.4787 21.7566 17.9536 21.2744 17.9609 20.3977C17.9609 19.3311 17.9536 18.2645 17.9609 17.1978C17.9682 16.5622 18.4576 16.1531 19.0348 16.2919C19.3782 16.3723 19.6485 16.6572 19.685 17.0152C19.7142 17.2782 19.7069 17.5412 19.7069 17.8042C19.7069 18.7612 19.7362 19.7183 19.685 20.6754C19.5973 22.3265 18.3481 23.4881 16.6896 23.4954C15.2796 23.5027 13.8623 23.5027 12.4523 23.4954C12.2258 23.4954 12.1601 23.5538 12.1674 23.7803C12.1674 24.4013 12.2258 25.0223 12.1089 25.636C11.8898 26.7903 10.9692 27.6962 9.78569 27.9446C9.72724 27.9592 9.66879 27.9811 9.60304 28.0031C9.33273 28.0031 9.06242 28.0031 8.78479 28.0031ZM1.75663 12.2007C1.75663 13.7349 1.75663 15.2618 1.75663 16.796C1.75663 18.2718 1.77125 19.7475 1.74933 21.2233C1.74202 21.8443 1.97581 22.2753 2.53105 22.5749C3.15204 22.9036 3.75111 23.2689 4.35749 23.6196C5.74559 24.4232 7.13369 25.2196 8.52179 26.0232C8.81402 26.1912 9.11356 26.3008 9.45693 26.2204C10.0852 26.0743 10.4213 25.6141 10.4213 24.8908C10.4213 19.353 10.4213 13.8079 10.4286 8.27014C10.4286 7.65646 10.1875 7.24733 9.65418 6.94049C7.23597 5.56701 4.83967 4.1716 2.43607 2.7835C1.75663 2.38899 1.75663 2.38899 1.75663 3.18532C1.75663 6.188 1.75663 9.19798 1.75663 12.2007Z" fill="#007AD0"/>
<path d="M22.0229 10.8784C21.548 10.4035 21.1316 9.9798 20.7078 9.57068C20.4229 9.29306 20.3352 8.9643 20.474 8.59901C20.6932 7.99263 21.4457 7.84651 21.9279 8.32139C22.4977 8.87663 23.053 9.43917 23.6082 10.0017C23.9662 10.3597 24.3315 10.7177 24.6895 11.083C25.0986 11.4994 25.1059 12.0035 24.6968 12.4126C23.7762 13.3405 22.8557 14.261 21.9352 15.1742C21.548 15.5614 21.022 15.5687 20.664 15.2107C20.306 14.8528 20.3206 14.3121 20.7078 13.9176C21.1169 13.5012 21.5334 13.0921 21.9498 12.6756C21.8548 12.5807 21.7525 12.6245 21.6576 12.6245C19.1809 12.6245 16.6969 12.6245 14.2203 12.6245C14.118 12.6245 14.0157 12.6318 13.9207 12.6172C13.4313 12.5807 13.0733 12.1788 13.0952 11.704C13.1098 11.2364 13.4824 10.8784 13.9719 10.8711C14.907 10.8638 15.8495 10.8711 16.7846 10.8711C18.3992 10.8711 20.0138 10.8711 21.621 10.8711C21.7379 10.8784 21.8329 10.8784 22.0229 10.8784Z" fill="#007AD0"/>
</svg>
