<svg width="27" height="27" viewBox="0 0 27 27" fill="none" xmlns="http://www.w3.org/2000/svg">
<path d="M5.67825 26.0034C5.67825 25.7345 5.69047 25.4656 5.67214 25.1966C5.65991 24.9949 5.73937 24.9522 5.92272 24.9583C6.14274 24.9705 6.36277 24.9522 6.58279 24.9644C6.71725 24.9705 6.76615 24.9155 6.79671 24.7933C7.04118 23.8215 7.65847 23.2164 8.62414 22.9781C8.7586 22.9475 8.8136 22.8925 8.80749 22.7519C8.79527 22.5258 8.78916 22.2935 8.80749 22.0674C8.81972 21.884 8.7586 21.8351 8.58135 21.8351C6.9984 21.8413 5.40933 21.8413 3.82637 21.8413C3.6858 21.8413 3.55134 21.8351 3.41077 21.8229C2.01116 21.6946 1.00883 20.6067 1.00272 19.201C0.996605 17.398 1.00272 15.5889 1.00272 13.7859C1.00272 11.824 1.00272 9.86823 1.00272 7.90634C1.00272 6.30505 2.11506 5.18659 3.71025 5.17436C3.9975 5.17436 4.27864 5.17436 4.5659 5.17436C4.66369 5.17436 4.72481 5.15603 4.76759 5.04602C5.09151 4.09869 5.88605 3.61585 6.86394 3.60974C8.2941 3.60363 9.72426 3.61585 11.1605 3.60974C11.3622 3.60974 11.4417 3.66475 11.4172 3.86644C11.3867 4.12313 11.5272 4.45317 11.3622 4.61819C11.2094 4.76487 10.8794 4.66097 10.6288 4.66097C10.0176 4.66708 9.40645 4.66097 8.80138 4.66097C8.72193 4.66097 8.64247 4.66097 8.52024 4.66097C8.91139 5.32716 8.8136 6.03002 8.8136 6.71454C8.81972 10.1249 8.8136 13.5292 8.8136 16.9396C8.8136 17.508 8.97251 17.6669 9.5348 17.6669C13.2202 17.6669 16.8995 17.6669 20.5849 17.6669C21.1472 17.6669 21.3061 17.508 21.3061 16.9335C21.3061 16.3956 21.3061 15.8578 21.3061 15.3261C21.3061 14.1037 21.9112 13.5048 23.1397 13.5048C23.5125 13.5048 23.8853 13.5048 24.2642 13.5048C24.7654 13.5048 24.9549 13.3153 24.9549 12.8141C24.9549 10.8278 24.9549 8.84756 24.9549 6.86122C24.9549 5.5044 24.9549 4.14758 24.9549 2.78465C24.9549 2.21625 24.7838 2.04512 24.2092 2.04512C22.4613 2.04512 20.7133 2.05123 18.9653 2.03901C18.7636 2.03901 18.7025 2.0879 18.7025 2.2957C18.7147 3.35916 18.7086 4.42872 18.7086 5.49218C18.7086 6.03002 18.5314 6.21337 17.9996 6.21337C17.254 6.21337 16.5023 6.21337 15.7566 6.21337C15.2554 6.21337 15.066 6.0239 15.066 5.52274C15.066 4.44706 15.0599 3.37749 15.0721 2.30181C15.0721 2.07568 15.0049 2.02067 14.7971 2.03901C14.5648 2.05734 14.3265 2.03289 14.0881 2.04512C13.703 2.06345 13.5014 2.25903 13.5014 2.64408C13.5014 6.06057 13.5014 9.47707 13.5014 12.8936C13.5014 13.3092 13.7153 13.4986 14.1492 13.4986C16.0928 13.4986 18.0363 13.5048 19.9799 13.4925C20.2182 13.4925 20.2977 13.5475 20.2732 13.7859C20.2549 13.9693 20.261 14.1587 20.2732 14.3482C20.2794 14.501 20.2182 14.5376 20.0777 14.5376C18.0669 14.5315 16.0622 14.5438 14.0514 14.5315C13.0796 14.5254 12.4685 13.8592 12.4685 12.8447C12.4685 9.73988 12.4685 6.62897 12.4685 3.52418C12.4685 3.18191 12.4624 2.83965 12.4746 2.49739C12.5174 1.69675 13.0919 1.09779 13.8864 1.01222C13.9964 1 14.1125 1 14.2287 1C17.5046 1 20.7805 1 24.0626 1C25.2177 1 25.5966 1.2567 26 2.32015C26 5.95056 26 9.57486 26 13.2053C25.9817 13.2481 25.9633 13.297 25.9511 13.3397C25.7189 14.1098 25.181 14.5193 24.3743 14.5315C23.9281 14.5376 23.4819 14.5315 23.0297 14.5315C22.5468 14.5315 22.3513 14.7271 22.3513 15.2161C22.3513 15.8272 22.3574 16.4384 22.3513 17.0435C22.339 18.0458 21.7034 18.6937 20.7011 18.6998C16.9423 18.7059 13.1897 18.7059 9.4309 18.6998C9.05808 18.6998 8.7097 18.6142 8.40411 18.3759C7.93962 18.0153 7.78071 17.5324 7.78071 16.964C7.78682 13.4681 7.78071 9.97213 7.78682 6.47618C7.78682 6.26226 7.73181 6.20726 7.5179 6.20726C6.26498 6.21948 5.01206 6.21337 3.75914 6.21337C3.47189 6.21337 3.19074 6.23782 2.93405 6.37228C2.28008 6.71454 2.0295 7.25849 2.0295 7.94912C2.0295 10.9072 2.0295 13.8715 2.0295 16.8296C2.0295 17.1596 2.0295 17.1596 2.35343 17.1596C3.72247 17.1596 5.0854 17.1657 6.45445 17.1535C6.67447 17.1535 6.7417 17.2146 6.71725 17.4285C6.69892 17.5997 6.69892 17.7708 6.71725 17.9419C6.7417 18.1681 6.65614 18.2047 6.44833 18.2047C5.04873 18.1925 3.64913 18.2047 2.24952 18.1986C2.09062 18.1986 2.01116 18.2292 2.02339 18.4064C2.03561 18.657 2.02339 18.9076 2.0295 19.1643C2.03561 19.531 2.11506 19.8733 2.3412 20.1666C2.68957 20.625 3.16018 20.8022 3.72247 20.8022C5.53768 20.7961 7.34677 20.7961 9.16198 20.8022C9.6387 20.8022 9.82816 20.9917 9.83428 21.4623C9.83428 21.8535 9.8465 22.2446 9.82816 22.6358C9.82205 22.8375 9.87706 22.8986 10.0787 22.8925C11.1422 22.8803 12.2118 22.8925 13.2752 22.8864C13.428 22.8864 13.4952 22.923 13.483 23.0881C13.4708 23.2714 13.4647 23.4609 13.483 23.6503C13.5014 23.8643 13.4402 23.9437 13.208 23.9376C12.5724 23.9193 11.9367 23.9315 11.3072 23.9315C10.6227 23.9315 9.93818 23.9315 9.25977 23.9376C8.67914 23.9437 8.23298 24.2004 7.93961 24.7077C7.80516 24.9461 7.82349 24.9766 8.0863 24.9766C9.29644 24.9766 10.5066 24.9766 11.7228 24.9766C14.1125 24.9766 16.5023 24.9766 18.8981 24.9766C19.1548 24.9766 19.1609 24.9644 19.0448 24.7444C18.7575 24.2065 18.2991 23.9559 17.7002 23.9254C17.3212 23.907 17.144 23.7237 17.1379 23.3386C17.1318 22.9414 17.1195 22.538 17.144 22.1407C17.1562 21.9085 17.089 21.8413 16.8506 21.8413C15.8116 21.8535 14.7665 21.8413 13.7275 21.8535C13.5319 21.8535 13.4708 21.7985 13.4891 21.609C13.5075 21.4379 13.5136 21.2667 13.4891 21.0956C13.4525 20.8328 13.5625 20.7961 13.8008 20.7961C16.9301 20.8022 20.0593 20.8022 23.1947 20.8022C23.488 20.8022 23.7814 20.79 24.0503 20.6495C24.686 20.3316 24.9549 19.7938 24.9549 19.1032C24.9549 17.8441 24.961 16.5851 24.9488 15.32C24.9488 15.1366 24.9793 15.0572 25.1871 15.0694C25.456 15.0877 25.725 15.0755 25.9939 15.0755C25.9939 16.5729 25.9939 18.0703 25.9939 19.5677C25.9511 19.7205 25.9144 19.8794 25.8655 20.0322C25.5049 21.1445 24.5148 21.8413 23.2802 21.8474C21.6728 21.8535 20.0593 21.8535 18.4519 21.8413C18.2197 21.8413 18.1586 21.9085 18.1769 22.1285C18.1952 22.3302 18.1891 22.5319 18.1769 22.7397C18.1708 22.8803 18.2074 22.9536 18.3602 22.9903C19.3259 23.2347 19.9432 23.8398 20.1877 24.8055C20.2182 24.9277 20.2671 24.9827 20.4016 24.9766C20.6277 24.9644 20.86 24.9827 21.0861 24.9705C21.2511 24.9644 21.3184 25.0072 21.3061 25.1844C21.2939 25.4594 21.3 25.7345 21.3 26.0156C16.0867 26.0034 10.8794 26.0034 5.67825 26.0034ZM16.0867 3.62808C16.0867 4.07424 16.0928 4.5204 16.0867 4.97267C16.0867 5.12547 16.1233 5.18659 16.2883 5.18659C16.6795 5.17436 17.0707 5.17436 17.4618 5.18659C17.6146 5.1927 17.6574 5.13769 17.6513 4.99101C17.6452 4.08035 17.6452 3.16969 17.6513 2.25903C17.6513 2.0879 17.584 2.05734 17.4374 2.05734C17.0523 2.06345 16.6734 2.06957 16.2883 2.05734C16.1294 2.05123 16.0805 2.11235 16.0805 2.26514C16.0928 2.71742 16.0867 3.1758 16.0867 3.62808ZM5.84938 5.15603C6.43 5.15603 6.98617 5.15603 7.55457 5.15603C7.13897 4.51429 6.29554 4.50818 5.84938 5.15603Z" fill="#007AD0" stroke="#007AD0" stroke-width="0.2"/>
<path d="M13.9964 16.634C12.6885 16.634 11.3806 16.6279 10.0665 16.6401C9.88929 16.6401 9.81595 16.6034 9.82818 16.414C9.84651 16.1939 9.83429 15.9739 9.82818 15.7539C9.82818 15.6378 9.86485 15.5889 9.98097 15.595C10.0238 15.6011 10.0604 15.595 10.1032 15.595C12.6946 15.595 15.2921 15.595 17.8835 15.5889C18.1036 15.5889 18.1891 15.6439 18.1586 15.87C18.128 16.1145 18.2625 16.4506 18.1036 16.5912C17.963 16.7134 17.6391 16.634 17.4007 16.634C16.2761 16.634 15.1332 16.634 13.9964 16.634Z" fill="#007AD0" stroke="#007AD0" stroke-width="0.2"/>
<path d="M10.8916 11.4268C11.185 11.4268 11.4723 11.4329 11.7656 11.4268C11.8756 11.4268 11.9245 11.4634 11.9245 11.5796C11.9184 11.824 11.9184 12.0685 11.9245 12.3069C11.9306 12.4291 11.8879 12.478 11.7595 12.478C11.1789 12.4719 10.5922 12.4719 10.0115 12.478C9.86485 12.478 9.83429 12.4169 9.83429 12.2885C9.8404 12.0624 9.8404 11.8362 9.83429 11.6101C9.82818 11.4695 9.88318 11.4268 10.0176 11.4268C10.311 11.4329 10.6044 11.4268 10.8916 11.4268Z" fill="#007AD0"/>
<path d="M10.8977 8.30371C10.6044 8.30371 10.311 8.2976 10.0176 8.30371C9.88317 8.30983 9.82205 8.26704 9.83427 8.12647C9.85261 7.85144 9.72426 7.50307 9.87705 7.31971C10.0237 7.14247 10.3782 7.27693 10.6471 7.26471C11.0139 7.25248 11.3806 7.26471 11.7412 7.2586C11.8756 7.2586 11.9306 7.29527 11.9184 7.43584C11.9062 7.66198 11.9062 7.89422 11.9184 8.12036C11.9306 8.27927 11.8573 8.30983 11.7167 8.30371C11.4539 8.2976 11.1728 8.30371 10.8977 8.30371Z" fill="#007AD0"/>
<path d="M10.8977 9.34862C11.1727 9.34862 11.4478 9.35473 11.7289 9.34862C11.8695 9.34251 11.9367 9.37307 11.9306 9.53197C11.9184 9.75811 11.9245 9.98425 11.9306 10.2165C11.9306 10.3326 11.9184 10.3937 11.7778 10.3937C11.185 10.3876 10.5921 10.3876 9.99928 10.3937C9.88315 10.3937 9.84037 10.351 9.84648 10.2409C9.8526 10.0026 9.8526 9.77033 9.84648 9.53197C9.84037 9.3914 9.90149 9.34862 10.0298 9.35473C10.311 9.35473 10.6043 9.34862 10.8977 9.34862Z" fill="#007AD0"/>
<path d="M10.8977 14.5498C10.6044 14.5498 10.311 14.5436 10.0176 14.5498C9.88318 14.5559 9.82818 14.5131 9.83429 14.3664C9.8404 14.128 9.8404 13.8958 9.83429 13.6574C9.83429 13.5413 9.87707 13.5046 9.9932 13.5046C10.586 13.5108 11.1789 13.5108 11.7717 13.5046C11.8879 13.5046 11.9306 13.5413 11.9245 13.6574C11.9184 13.9019 11.9184 14.1464 11.9245 14.3909C11.9306 14.5314 11.8634 14.5498 11.7473 14.5498C11.4661 14.5436 11.1789 14.5498 10.8977 14.5498Z" fill="#007AD0"/>
<path d="M20.2549 16.1145C20.2549 16.634 20.2549 16.634 19.7354 16.634C19.2037 16.634 19.2037 16.634 19.2037 16.1084C19.2037 15.595 19.2037 15.595 19.711 15.595C19.7171 15.595 19.7293 15.595 19.7354 15.595C20.2549 15.595 20.2549 15.595 20.2549 16.1145Z" fill="#007AD0"/>
<path d="M3.08074 9.1042C3.07463 8.82917 3.06852 8.49302 3.22132 8.18743C3.50246 7.6068 3.97307 7.30733 4.61481 7.27677C4.91429 7.26454 5.21376 7.27677 5.51935 7.27066C5.64159 7.26454 5.69049 7.30121 5.69049 7.43567C5.67826 7.67403 5.67826 7.90628 5.69049 8.14464C5.6966 8.29133 5.62937 8.32189 5.50102 8.31577C5.25044 8.30966 4.99985 8.30966 4.74316 8.31577C4.31533 8.328 4.12586 8.52358 4.11975 8.9514C4.11975 9.20199 4.11364 9.45868 4.11975 9.70927C4.12586 9.83761 4.08308 9.8804 3.95473 9.87428C3.71637 9.86817 3.48412 9.86817 3.24576 9.87428C3.11742 9.8804 3.06852 9.8315 3.07463 9.70927C3.08686 9.5198 3.08074 9.34256 3.08074 9.1042Z" fill="#007AD0"/>
</svg>
