<svg width="25" height="25" viewBox="0 0 25 25" fill="none" xmlns="http://www.w3.org/2000/svg">
<path d="M13.2873 24.9917C12.7689 24.9917 12.2456 24.9917 11.7273 24.9917C11.6637 24.9477 11.5854 24.9526 11.517 24.9477C10.9154 24.9086 10.3237 24.8157 9.73683 24.6836C2.79236 23.1382 -1.4868 15.9248 0.479166 9.09768C2.34244 2.59825 8.881 -1.21143 15.4685 0.348628C20.2367 1.47833 23.9975 5.4983 24.8093 10.3399C24.8875 10.7947 24.9364 11.2544 25 11.7141C25 12.2325 25 12.7558 25 13.2741C24.9853 13.3377 24.9658 13.4013 24.9609 13.4649C24.9218 14.0517 24.8288 14.6288 24.7066 15.201C23.6942 20.0426 19.5569 24.0087 14.6811 24.801C14.2214 24.8744 13.7519 24.9281 13.2873 24.9917ZM20.0166 20.5463C23.2345 17.6071 24.5599 12.6971 22.6624 8.20273C20.7991 3.78663 16.158 0.862128 10.9888 1.57125C6.26949 2.21679 2.33755 5.91888 1.59419 10.8876C1.32522 12.6824 1.49149 14.4381 2.09791 16.1497C2.69944 17.8516 3.66286 19.3188 4.99796 20.5707C5.7511 18.1744 7.25247 16.5019 9.52165 15.4846C8.14254 14.5212 7.30627 13.2399 7.11065 11.5869C6.91503 9.92907 7.38451 8.45703 8.52399 7.23441C10.5731 5.03859 13.9818 4.90166 16.158 6.91653C17.2046 7.88485 17.8159 9.08301 17.9137 10.5061C18.0506 12.609 17.185 14.2522 15.4929 15.4846C18.1093 16.8735 18.8135 17.6609 20.0166 20.5463ZM12.4999 23.5295C14.6762 23.5148 16.6813 22.9279 18.5152 21.7493C18.7011 21.632 18.7353 21.5146 18.6864 21.3141C18.0506 18.5656 15.8108 16.6241 12.9939 16.3894C9.85909 16.1302 6.98839 18.2624 6.32328 21.3434C6.28416 21.5244 6.31839 21.632 6.48467 21.7396C8.3137 22.9182 10.3188 23.5099 12.4999 23.5295ZM12.4951 6.95566C10.2992 6.96544 8.52888 8.74557 8.53867 10.9365C8.54356 13.1323 10.3188 14.9027 12.5146 14.8978C14.7104 14.8929 16.4808 13.1128 16.471 10.9169C16.471 8.72112 14.6811 6.94588 12.4951 6.95566Z" fill="#007AD0"/>
</svg>
